<svg xmlns="http://www.w3.org/2000/svg" xmlns:xlink="http://www.w3.org/1999/xlink" width="375" viewBox="0 0 375 375" height="375" version="1.0"><defs><g id="d"><path d="M 21.390625 -64.859375 C 29.773438 -65.722656 37.945312 -62.703125 45.90625 -55.796875 C 50.289062 -51.535156 52.738281 -46.90625 53.25 -41.90625 C 54.226562 -32.34375 49.03125 -21.320312 37.65625 -8.84375 C 33.125 -4.46875 26.75 -0.550781 18.53125 2.90625 C 14.988281 4.15625 12.71875 4.832031 11.71875 4.9375 L 8.0625 5.3125 C 5.40625 5.019531 4.015625 4.222656 3.890625 2.921875 C 3.828125 2.390625 3.6875 1.738281 3.46875 0.96875 C 3.050781 -3.050781 4.910156 -19.039062 9.046875 -47 C 9.515625 -49.082031 10.632812 -50.210938 12.40625 -50.390625 L 14.125 -50.5625 C 18.320312 -50.9375 20.445312 -50.875 20.5 -50.375 C 18.945312 -41.289062 17.691406 -30.8125 16.734375 -18.9375 C 16.023438 -15.800781 15.722656 -12.28125 15.828125 -8.375 L 16.046875 -8.40625 C 20.898438 -10.570312 25.535156 -13.59375 29.953125 -17.46875 C 35.054688 -23.1875 37.523438 -26.859375 37.359375 -28.484375 C 39.503906 -33.148438 40.347656 -37.675781 39.890625 -42.0625 C 39.078125 -49.988281 34.253906 -55.175781 25.421875 -57.625 C 22.191406 -58.59375 18.8125 -58.894531 15.28125 -58.53125 C 9.75 -57.96875 3.628906 -56.617188 -3.078125 -54.484375 C -4.242188 -54.460938 -4.84375 -54.628906 -4.875 -54.984375 C -2.65625 -57.753906 0.0664062 -59.632812 3.296875 -60.625 C 10.378906 -62.9375 16.410156 -64.347656 21.390625 -64.859375 Z M 21.390625 -64.859375"/></g><g id="e"><path d="M 27.328125 -12.96875 C 20.148438 -4.539062 14.453125 -1.550781 10.234375 -4 C 4.097656 -9.769531 1.71875 -18.789062 3.09375 -31.0625 C 4.476562 -43.332031 4.546875 -50.03125 3.296875 -51.15625 C 2.054688 -52.289062 -0.953125 -54.59375 -5.734375 -58.0625 L -5.84375 -58.703125 C -5.6875 -59.847656 -4.484375 -60.609375 -2.234375 -60.984375 L -0.71875 -61.234375 C 4.945312 -62.179688 9.410156 -60.695312 12.671875 -56.78125 C 15.929688 -52.875 16.882812 -45.390625 15.53125 -34.328125 C 14.1875 -23.265625 13.425781 -16.25 13.25 -13.28125 C 13.082031 -10.320312 15.925781 -10.878906 21.78125 -14.953125 C 27.601562 -19.441406 29.203125 -34.710938 26.578125 -60.765625 C 28.003906 -62.410156 30.269531 -64.171875 33.375 -66.046875 C 35.863281 -66.472656 37.640625 -64.90625 38.703125 -61.34375 C 38.347656 -31.300781 38.515625 -14.078125 39.203125 -9.671875 C 39.367188 -8.609375 39.976562 -6.609375 41.03125 -3.671875 L 41.171875 -2.75 C 41.191406 -2.320312 41.03125 -2.078125 40.6875 -2.015625 L 39.8125 -1.875 C 37.332031 -1.445312 34.132812 -3.546875 30.21875 -8.171875 C 28.644531 -11.410156 27.679688 -13.007812 27.328125 -12.96875 Z M 27.328125 -12.96875"/></g><g id="f"><path d="M 18.09375 -60.109375 C 20.800781 -61.472656 23.847656 -60.046875 27.234375 -55.828125 C 28.523438 -52.929688 29.328125 -51.5 29.640625 -51.53125 C 32.941406 -56.4375 35.90625 -59.023438 38.53125 -59.296875 C 43.25 -59.773438 48.191406 -46.75 53.359375 -20.21875 C 55.140625 -18.007812 58.171875 -15.289062 62.453125 -12.0625 L 62.515625 -11.484375 C 62.304688 -10.503906 61.125 -9.898438 58.96875 -9.671875 L 57.578125 -9.53125 C 52.210938 -8.988281 48.117188 -10.5 45.296875 -14.0625 C 42.472656 -17.625 40.5 -24.46875 39.375 -34.59375 C 38.257812 -44.726562 36.707031 -49.691406 34.71875 -49.484375 C 32.945312 -49.304688 31.515625 -36.300781 30.421875 -10.46875 C 28.960938 -9.070312 27.035156 -7.585938 24.640625 -6.015625 C 22.285156 -5.773438 20.710938 -7.226562 19.921875 -10.375 C 20.773438 -15.96875 20.8125 -24.078125 20.03125 -34.703125 C 19.257812 -45.328125 18.445312 -50.613281 17.59375 -50.5625 C 16.75 -50.507812 15.75 -50.082031 14.59375 -49.28125 C 8.894531 -45.675781 6.53125 -32.445312 7.5 -9.59375 C 6.050781 -8.21875 3.828125 -6.785156 0.828125 -5.296875 C -1.535156 -5.054688 -3.113281 -6.515625 -3.90625 -9.671875 C -1.8125 -35.859375 -0.96875 -50.890625 -1.375 -54.765625 C -1.46875 -55.691406 -1.925781 -57.453125 -2.75 -60.046875 L -2.828125 -60.875 C -2.816406 -61.257812 -2.648438 -61.46875 -2.328125 -61.5 L -1.515625 -61.578125 C 0.847656 -61.816406 3.71875 -59.832031 7.09375 -55.625 C 8.394531 -52.71875 9.207031 -51.28125 9.53125 -51.3125 C 12.539062 -55.8125 15.394531 -58.742188 18.09375 -60.109375 Z M 18.09375 -60.109375"/></g><g id="g"><path d="M 10 6.265625 C 10 6.816406 9.984375 7.363281 9.953125 7.90625 L 9.40625 8.296875 L 8.796875 8.359375 C 4.804688 8.773438 2.117188 2.941406 0.734375 -9.140625 C -0.640625 -21.234375 -1.0625 -31.429688 -0.53125 -39.734375 L -0.78125 -42.09375 C -0.96875 -43.90625 -0.640625 -47.765625 0.203125 -53.671875 C 0.535156 -56.160156 0.617188 -58.21875 0.453125 -59.84375 L 0.34375 -60.859375 C 0.289062 -61.359375 -0.363281 -62.566406 -1.625 -64.484375 L -1.65625 -64.828125 C -1.65625 -65.304688 -1.476562 -65.5625 -1.125 -65.59375 L -0.203125 -65.6875 C 3.378906 -66.863281 6.8125 -66.984375 10.09375 -66.046875 C 10.695312 -66.835938 11.25 -67.257812 11.75 -67.3125 C 14.164062 -67.5625 17.800781 -66.640625 22.65625 -64.546875 C 34.5625 -58.203125 40.394531 -51.441406 40.15625 -44.265625 L 40.15625 -43.90625 C 40.03125 -40.4375 37.957031 -37.101562 33.9375 -33.90625 C 33.132812 -33.382812 32.425781 -32.925781 31.8125 -32.53125 C 38.039062 -29.46875 41.875 -26.4375 43.3125 -23.4375 C 44.8125 -20.28125 44.675781 -16.085938 42.90625 -10.859375 C 40.457031 -6.453125 38.109375 -3.554688 35.859375 -2.171875 C 35.984375 -1.859375 33.941406 -0.175781 29.734375 2.875 C 24.878906 6.195312 20.75 8.035156 17.34375 8.390625 C 14.75 8.648438 12.300781 7.941406 10 6.265625 Z M 15.09375 -58.6875 C 14.613281 -54.425781 14.144531 -47.816406 13.6875 -38.859375 C 12.71875 -34.785156 11.863281 -27.1875 11.125 -16.0625 C 11.582031 -16.238281 12.066406 -16.351562 12.578125 -16.40625 L 15.46875 -16.703125 C 15.664062 -16.691406 15.820312 -16.582031 15.9375 -16.375 L 16.046875 -16.21875 C 16.503906 -15.207031 16.054688 -12.984375 14.703125 -9.546875 C 14.347656 -7.828125 14.179688 -6.273438 14.203125 -4.890625 L 14.828125 -3.546875 C 15.109375 -3.140625 15.921875 -2.816406 17.265625 -2.578125 C 19.160156 -2.773438 23.09375 -5.234375 29.0625 -9.953125 C 33.25 -14.453125 34.6875 -18.078125 33.375 -20.828125 C 32.476562 -22.671875 29.648438 -23.78125 24.890625 -24.15625 C 20.140625 -24.539062 17.707031 -25.773438 17.59375 -27.859375 C 17.488281 -29.941406 19.410156 -32.394531 23.359375 -35.21875 C 27.316406 -38.039062 29.210938 -41.734375 29.046875 -46.296875 C 29.160156 -49.128906 26.679688 -52.171875 21.609375 -55.421875 C 19.128906 -57.003906 16.957031 -58.09375 15.09375 -58.6875 Z M 15.09375 -58.6875"/></g><g id="h"><path d="M 6.859375 -11.046875 C 5.523438 -11.046875 4.472656 -10.601562 3.703125 -9.71875 C 2.929688 -8.832031 2.546875 -7.613281 2.546875 -6.0625 C 2.546875 -4.476562 2.914062 -3.253906 3.65625 -2.390625 C 4.40625 -1.523438 5.46875 -1.09375 6.84375 -1.09375 C 7.695312 -1.09375 8.664062 -1.242188 9.75 -1.546875 L 9.75 -0.3125 C 8.90625 0.0078125 7.863281 0.171875 6.625 0.171875 C 4.84375 0.171875 3.460938 -0.367188 2.484375 -1.453125 C 1.515625 -2.546875 1.03125 -4.085938 1.03125 -6.078125 C 1.03125 -7.328125 1.265625 -8.421875 1.734375 -9.359375 C 2.203125 -10.304688 2.878906 -11.035156 3.765625 -11.546875 C 4.648438 -12.054688 5.6875 -12.3125 6.875 -12.3125 C 8.15625 -12.3125 9.269531 -12.078125 10.21875 -11.609375 L 9.625 -10.40625 C 8.707031 -10.832031 7.785156 -11.046875 6.859375 -11.046875 Z M 6.859375 -11.046875"/></g><g id="i"><path d="M 12.203125 -6.078125 C 12.203125 -4.140625 11.707031 -2.613281 10.71875 -1.5 C 9.738281 -0.382812 8.375 0.171875 6.625 0.171875 C 4.84375 0.171875 3.460938 -0.375 2.484375 -1.46875 C 1.515625 -2.5625 1.03125 -4.101562 1.03125 -6.09375 C 1.03125 -8.070312 1.515625 -9.601562 2.484375 -10.6875 C 3.460938 -11.78125 4.851562 -12.328125 6.65625 -12.328125 C 8.394531 -12.328125 9.753906 -11.769531 10.734375 -10.65625 C 11.710938 -9.550781 12.203125 -8.023438 12.203125 -6.078125 Z M 2.53125 -6.078125 C 2.53125 -4.441406 2.878906 -3.195312 3.578125 -2.34375 C 4.273438 -1.5 5.289062 -1.078125 6.625 -1.078125 C 7.976562 -1.078125 8.992188 -1.5 9.671875 -2.34375 C 10.359375 -3.1875 10.703125 -4.429688 10.703125 -6.078125 C 10.703125 -7.710938 10.359375 -8.953125 9.671875 -9.796875 C 8.992188 -10.640625 7.988281 -11.0625 6.65625 -11.0625 C 5.300781 -11.0625 4.273438 -10.632812 3.578125 -9.78125 C 2.878906 -8.9375 2.53125 -7.703125 2.53125 -6.078125 Z M 2.53125 -6.078125"/></g><g id="j"><path d="M 7.046875 0 L 2.921875 -10.765625 L 2.859375 -10.765625 C 2.929688 -9.910156 2.96875 -8.894531 2.96875 -7.71875 L 2.96875 0 L 1.671875 0 L 1.671875 -12.140625 L 3.796875 -12.140625 L 7.640625 -2.125 L 7.703125 -2.125 L 11.578125 -12.140625 L 13.6875 -12.140625 L 13.6875 0 L 12.28125 0 L 12.28125 -7.8125 C 12.28125 -8.71875 12.316406 -9.691406 12.390625 -10.734375 L 12.328125 -10.734375 L 8.171875 0 Z M 7.046875 0"/></g><g id="k"><path d="M 3.078125 0 L 1.671875 0 L 1.671875 -12.140625 L 8.4375 -12.140625 L 8.4375 -10.875 L 3.078125 -10.875 L 3.078125 -6.4375 L 8.109375 -6.4375 L 8.109375 -5.1875 L 3.078125 -5.1875 Z M 3.078125 0"/></g><g id="l"><path d="M 3.078125 -5.046875 L 3.078125 0 L 1.671875 0 L 1.671875 -12.140625 L 5 -12.140625 C 6.488281 -12.140625 7.585938 -11.851562 8.296875 -11.28125 C 9.003906 -10.707031 9.359375 -9.847656 9.359375 -8.703125 C 9.359375 -7.097656 8.546875 -6.015625 6.921875 -5.453125 L 10.21875 0 L 8.546875 0 L 5.609375 -5.046875 Z M 3.078125 -6.265625 L 5.015625 -6.265625 C 6.015625 -6.265625 6.742188 -6.460938 7.203125 -6.859375 C 7.671875 -7.253906 7.90625 -7.847656 7.90625 -8.640625 C 7.90625 -9.441406 7.664062 -10.019531 7.1875 -10.375 C 6.71875 -10.726562 5.960938 -10.90625 4.921875 -10.90625 L 3.078125 -10.90625 Z M 3.078125 -6.265625"/></g><g id="m"><path d="M 5.40625 0 L 4 0 L 4 -10.875 L 0.15625 -10.875 L 0.15625 -12.140625 L 9.25 -12.140625 L 9.25 -10.875 L 5.40625 -10.875 Z M 5.40625 0"/></g><g id="n"><path d="M 9.296875 0 L 7.78125 -3.859375 L 2.921875 -3.859375 L 1.421875 0 L 0 0 L 4.796875 -12.1875 L 5.984375 -12.1875 L 10.765625 0 Z M 7.34375 -5.125 L 5.9375 -8.890625 C 5.75 -9.367188 5.5625 -9.953125 5.375 -10.640625 C 5.25 -10.109375 5.070312 -9.523438 4.84375 -8.890625 L 3.421875 -5.125 Z M 7.34375 -5.125"/></g><g id="o"><path d="M 1.671875 -12.140625 L 5.09375 -12.140625 C 6.707031 -12.140625 7.875 -11.894531 8.59375 -11.40625 C 9.3125 -10.925781 9.671875 -10.164062 9.671875 -9.125 C 9.671875 -8.40625 9.46875 -7.8125 9.0625 -7.34375 C 8.664062 -6.882812 8.082031 -6.582031 7.3125 -6.4375 L 7.3125 -6.359375 C 9.15625 -6.046875 10.078125 -5.078125 10.078125 -3.453125 C 10.078125 -2.367188 9.707031 -1.519531 8.96875 -0.90625 C 8.238281 -0.300781 7.21875 0 5.90625 0 L 1.671875 0 Z M 3.078125 -6.9375 L 5.40625 -6.9375 C 6.394531 -6.9375 7.109375 -7.09375 7.546875 -7.40625 C 7.984375 -7.71875 8.203125 -8.242188 8.203125 -8.984375 C 8.203125 -9.671875 7.957031 -10.164062 7.46875 -10.46875 C 6.988281 -10.769531 6.21875 -10.921875 5.15625 -10.921875 L 3.078125 -10.921875 Z M 3.078125 -5.75 L 3.078125 -1.203125 L 5.609375 -1.203125 C 6.585938 -1.203125 7.320312 -1.390625 7.8125 -1.765625 C 8.3125 -2.148438 8.5625 -2.742188 8.5625 -3.546875 C 8.5625 -4.304688 8.304688 -4.863281 7.796875 -5.21875 C 7.296875 -5.570312 6.53125 -5.75 5.5 -5.75 Z M 3.078125 -5.75"/></g><g id="p"><path d="M 1.671875 0 L 1.671875 -12.140625 L 3.078125 -12.140625 L 3.078125 -1.28125 L 8.4375 -1.28125 L 8.4375 0 Z M 1.671875 0"/></g><g id="q"><path d="M 4.75 -6.0625 L 8 -12.140625 L 9.515625 -12.140625 L 5.46875 -4.703125 L 5.46875 0 L 4.046875 0 L 4.046875 -4.640625 L 0 -12.140625 L 1.546875 -12.140625 Z M 4.75 -6.0625"/></g><g id="r"><path d="M 4.03125 -6.5 C 3.25 -6.5 2.628906 -6.238281 2.171875 -5.71875 C 1.722656 -5.195312 1.5 -4.476562 1.5 -3.5625 C 1.5 -2.632812 1.71875 -1.914062 2.15625 -1.40625 C 2.59375 -0.894531 3.21875 -0.640625 4.03125 -0.640625 C 4.53125 -0.640625 5.097656 -0.726562 5.734375 -0.90625 L 5.734375 -0.1875 C 5.234375 0 4.625 0.09375 3.90625 0.09375 C 2.851562 0.09375 2.039062 -0.222656 1.46875 -0.859375 C 0.894531 -1.492188 0.609375 -2.398438 0.609375 -3.578125 C 0.609375 -4.316406 0.742188 -4.960938 1.015625 -5.515625 C 1.296875 -6.066406 1.695312 -6.488281 2.21875 -6.78125 C 2.738281 -7.082031 3.347656 -7.234375 4.046875 -7.234375 C 4.796875 -7.234375 5.453125 -7.097656 6.015625 -6.828125 L 5.65625 -6.125 C 5.113281 -6.375 4.570312 -6.5 4.03125 -6.5 Z M 4.03125 -6.5"/></g><g id="s"><path d="M 2.796875 -3.5625 L 4.703125 -7.140625 L 5.59375 -7.140625 L 3.21875 -2.765625 L 3.21875 0 L 2.375 0 L 2.375 -2.734375 L 0 -7.140625 L 0.90625 -7.140625 Z M 2.796875 -3.5625"/></g><g id="t"><path d="M 0.984375 -7.140625 L 3 -7.140625 C 3.945312 -7.140625 4.628906 -7 5.046875 -6.71875 C 5.472656 -6.4375 5.6875 -5.988281 5.6875 -5.375 C 5.6875 -4.945312 5.566406 -4.59375 5.328125 -4.3125 C 5.097656 -4.039062 4.753906 -3.867188 4.296875 -3.796875 L 4.296875 -3.734375 C 5.378906 -3.554688 5.921875 -2.988281 5.921875 -2.03125 C 5.921875 -1.394531 5.707031 -0.894531 5.28125 -0.53125 C 4.851562 -0.175781 4.25 0 3.46875 0 L 0.984375 0 Z M 1.8125 -4.078125 L 3.171875 -4.078125 C 3.765625 -4.078125 4.1875 -4.171875 4.4375 -4.359375 C 4.695312 -4.546875 4.828125 -4.851562 4.828125 -5.28125 C 4.828125 -5.6875 4.679688 -5.976562 4.390625 -6.15625 C 4.109375 -6.332031 3.65625 -6.421875 3.03125 -6.421875 L 1.8125 -6.421875 Z M 1.8125 -3.375 L 1.8125 -0.703125 L 3.296875 -0.703125 C 3.878906 -0.703125 4.316406 -0.8125 4.609375 -1.03125 C 4.898438 -1.257812 5.046875 -1.613281 5.046875 -2.09375 C 5.046875 -2.53125 4.894531 -2.851562 4.59375 -3.0625 C 4.289062 -3.269531 3.835938 -3.375 3.234375 -3.375 Z M 1.8125 -3.375"/></g><g id="u"><path d="M 4.96875 0 L 0.984375 0 L 0.984375 -7.140625 L 4.96875 -7.140625 L 4.96875 -6.40625 L 1.8125 -6.40625 L 1.8125 -4.109375 L 4.765625 -4.109375 L 4.765625 -3.375 L 1.8125 -3.375 L 1.8125 -0.75 L 4.96875 -0.75 Z M 4.96875 0"/></g><g id="v"><path d="M 1.8125 -2.96875 L 1.8125 0 L 0.984375 0 L 0.984375 -7.140625 L 2.9375 -7.140625 C 3.8125 -7.140625 4.457031 -6.972656 4.875 -6.640625 C 5.300781 -6.304688 5.515625 -5.800781 5.515625 -5.125 C 5.515625 -4.175781 5.035156 -3.535156 4.078125 -3.203125 L 6.015625 0 L 5.03125 0 L 3.296875 -2.96875 Z M 1.8125 -3.6875 L 2.953125 -3.6875 C 3.535156 -3.6875 3.960938 -3.800781 4.234375 -4.03125 C 4.515625 -4.257812 4.65625 -4.609375 4.65625 -5.078125 C 4.65625 -5.546875 4.515625 -5.882812 4.234375 -6.09375 C 3.953125 -6.300781 3.503906 -6.40625 2.890625 -6.40625 L 1.8125 -6.40625 Z M 1.8125 -3.6875"/></g><g id="w"><path d="M 5.015625 -1.90625 C 5.015625 -1.269531 4.785156 -0.773438 4.328125 -0.421875 C 3.867188 -0.078125 3.25 0.09375 2.46875 0.09375 C 1.625 0.09375 0.972656 -0.015625 0.515625 -0.234375 L 0.515625 -1.03125 C 0.804688 -0.90625 1.125 -0.804688 1.46875 -0.734375 C 1.820312 -0.660156 2.164062 -0.625 2.5 -0.625 C 3.050781 -0.625 3.46875 -0.726562 3.75 -0.9375 C 4.03125 -1.15625 4.171875 -1.453125 4.171875 -1.828125 C 4.171875 -2.066406 4.117188 -2.265625 4.015625 -2.421875 C 3.921875 -2.585938 3.753906 -2.734375 3.515625 -2.859375 C 3.285156 -2.992188 2.9375 -3.148438 2.46875 -3.328125 C 1.800781 -3.554688 1.320312 -3.832031 1.03125 -4.15625 C 0.75 -4.488281 0.609375 -4.914062 0.609375 -5.4375 C 0.609375 -5.988281 0.8125 -6.425781 1.21875 -6.75 C 1.632812 -7.070312 2.1875 -7.234375 2.875 -7.234375 C 3.582031 -7.234375 4.234375 -7.101562 4.828125 -6.84375 L 4.578125 -6.125 C 3.984375 -6.375 3.410156 -6.5 2.859375 -6.5 C 2.410156 -6.5 2.0625 -6.40625 1.8125 -6.21875 C 1.570312 -6.03125 1.453125 -5.769531 1.453125 -5.4375 C 1.453125 -5.1875 1.492188 -4.976562 1.578125 -4.8125 C 1.671875 -4.65625 1.828125 -4.507812 2.046875 -4.375 C 2.265625 -4.25 2.597656 -4.109375 3.046875 -3.953125 C 3.796875 -3.679688 4.3125 -3.390625 4.59375 -3.078125 C 4.875 -2.773438 5.015625 -2.382812 5.015625 -1.90625 Z M 5.015625 -1.90625"/></g><g id="x"><path d="M 6.375 -7.140625 L 6.375 -2.515625 C 6.375 -1.703125 6.125 -1.0625 5.625 -0.59375 C 5.132812 -0.132812 4.460938 0.09375 3.609375 0.09375 C 2.742188 0.09375 2.078125 -0.140625 1.609375 -0.609375 C 1.140625 -1.078125 0.90625 -1.722656 0.90625 -2.546875 L 0.90625 -7.140625 L 1.734375 -7.140625 L 1.734375 -2.484375 C 1.734375 -1.890625 1.894531 -1.429688 2.21875 -1.109375 C 2.550781 -0.785156 3.03125 -0.625 3.65625 -0.625 C 4.257812 -0.625 4.722656 -0.785156 5.046875 -1.109375 C 5.378906 -1.429688 5.546875 -1.890625 5.546875 -2.484375 L 5.546875 -7.140625 Z M 6.375 -7.140625"/></g><g id="y"><path d="M 0.984375 0 L 0.984375 -7.140625 L 1.8125 -7.140625 L 1.8125 0 Z M 0.984375 0"/></g><g id="z"><path d="M 3.171875 0 L 2.34375 0 L 2.34375 -6.40625 L 0.09375 -6.40625 L 0.09375 -7.140625 L 5.4375 -7.140625 L 5.4375 -6.40625 L 3.171875 -6.40625 Z M 3.171875 0"/></g><g id="B"><path d="M 0.984375 0 L 0.984375 -7.140625 L 1.8125 -7.140625 L 1.8125 -0.75 L 4.96875 -0.75 L 4.96875 0 Z M 0.984375 0"/></g><g id="C"><path d="M 7.171875 -3.578125 C 7.171875 -2.429688 6.878906 -1.53125 6.296875 -0.875 C 5.722656 -0.226562 4.925781 0.09375 3.90625 0.09375 C 2.851562 0.09375 2.039062 -0.222656 1.46875 -0.859375 C 0.894531 -1.503906 0.609375 -2.414062 0.609375 -3.59375 C 0.609375 -4.75 0.894531 -5.644531 1.46875 -6.28125 C 2.039062 -6.925781 2.851562 -7.25 3.90625 -7.25 C 4.9375 -7.25 5.738281 -6.921875 6.3125 -6.265625 C 6.882812 -5.617188 7.171875 -4.722656 7.171875 -3.578125 Z M 1.484375 -3.578125 C 1.484375 -2.609375 1.6875 -1.875 2.09375 -1.375 C 2.507812 -0.875 3.113281 -0.625 3.90625 -0.625 C 4.695312 -0.625 5.289062 -0.875 5.6875 -1.375 C 6.09375 -1.875 6.296875 -2.609375 6.296875 -3.578125 C 6.296875 -4.535156 6.09375 -5.265625 5.6875 -5.765625 C 5.289062 -6.265625 4.695312 -6.515625 3.90625 -6.515625 C 3.113281 -6.515625 2.507812 -6.265625 2.09375 -5.765625 C 1.6875 -5.265625 1.484375 -4.535156 1.484375 -3.578125 Z M 1.484375 -3.578125"/></g><g id="D"><path d="M 4.125 -3.734375 L 6.546875 -3.734375 L 6.546875 -0.265625 C 6.171875 -0.148438 5.785156 -0.0625 5.390625 0 C 5.003906 0.0625 4.550781 0.09375 4.03125 0.09375 C 2.957031 0.09375 2.117188 -0.222656 1.515625 -0.859375 C 0.910156 -1.503906 0.609375 -2.40625 0.609375 -3.5625 C 0.609375 -4.3125 0.753906 -4.960938 1.046875 -5.515625 C 1.347656 -6.078125 1.78125 -6.503906 2.34375 -6.796875 C 2.90625 -7.085938 3.5625 -7.234375 4.3125 -7.234375 C 5.070312 -7.234375 5.78125 -7.097656 6.4375 -6.828125 L 6.125 -6.09375 C 5.476562 -6.363281 4.859375 -6.5 4.265625 -6.5 C 3.390625 -6.5 2.707031 -6.238281 2.21875 -5.71875 C 1.726562 -5.207031 1.484375 -4.488281 1.484375 -3.5625 C 1.484375 -2.601562 1.71875 -1.875 2.1875 -1.375 C 2.664062 -0.875 3.359375 -0.625 4.265625 -0.625 C 4.765625 -0.625 5.25 -0.679688 5.71875 -0.796875 L 5.71875 -3 L 4.125 -3 Z M 4.125 -3.734375"/></g><clipPath id="a"><path d="M 53 151 L 321 151 L 321 224 L 53 224 Z M 53 151"/></clipPath><clipPath id="b"><path d="M 53.550781 178.246094 L 315.425781 151.390625 L 320.015625 196.15625 L 58.140625 223.011719 Z M 53.550781 178.246094"/></clipPath><clipPath id="c"><path d="M 42.417969 69.679688 L 304.292969 42.824219 L 331.148438 304.703125 L 69.269531 331.554688 Z M 42.417969 69.679688"/></clipPath></defs><path fill="#FFF" d="M-37.5 -37.5H412.5V412.5H-37.5z"/><path fill="#FFF" d="M-37.5 -37.5H412.5V412.5H-37.5z"/><path d="M-37.5 -37.5H412.5V412.5H-37.5z"/><g clip-path="url(#a)"><g clip-path="url(#b)"><g clip-path="url(#c)"><path fill="#5AF86E" d="M 42.417969 69.679688 L 304.292969 42.824219 L 331.148438 304.703125 L 69.269531 331.554688 Z M 42.417969 69.679688"/></g></g></g><g fill="#FFF"><use x="82.534" y="220.958" xmlns:xlink="http://www.w3.org/1999/xlink" xlink:href="#d" xlink:type="simple" xlink:actuate="onLoad" xlink:show="embed"/></g><g fill="#FFF"><use x="139.994" y="215.066" xmlns:xlink="http://www.w3.org/1999/xlink" xlink:href="#e" xlink:type="simple" xlink:actuate="onLoad" xlink:show="embed"/></g><g fill="#FFF"><use x="186.407" y="210.306" xmlns:xlink="http://www.w3.org/1999/xlink" xlink:href="#f" xlink:type="simple" xlink:actuate="onLoad" xlink:show="embed"/></g><g fill="#FFF"><use x="250.606" y="203.723" xmlns:xlink="http://www.w3.org/1999/xlink" xlink:href="#g" xlink:type="simple" xlink:actuate="onLoad" xlink:show="embed"/></g><g fill="#FFF"><use x="45.099" y="143.548" xmlns:xlink="http://www.w3.org/1999/xlink" xlink:href="#h" xlink:type="simple" xlink:actuate="onLoad" xlink:show="embed"/></g><g fill="#FFF"><use x="63.802" y="143.548" xmlns:xlink="http://www.w3.org/1999/xlink" xlink:href="#i" xlink:type="simple" xlink:actuate="onLoad" xlink:show="embed"/></g><g fill="#FFF"><use x="85.026" y="143.548" xmlns:xlink="http://www.w3.org/1999/xlink" xlink:href="#j" xlink:type="simple" xlink:actuate="onLoad" xlink:show="embed"/></g><g fill="#FFF"><use x="108.357" y="143.548" xmlns:xlink="http://www.w3.org/1999/xlink" xlink:href="#k" xlink:type="simple" xlink:actuate="onLoad" xlink:show="embed"/></g><g fill="#FFF"><use x="125.117" y="143.548" xmlns:xlink="http://www.w3.org/1999/xlink" xlink:href="#i" xlink:type="simple" xlink:actuate="onLoad" xlink:show="embed"/></g><g fill="#FFF"><use x="146.34" y="143.548" xmlns:xlink="http://www.w3.org/1999/xlink" xlink:href="#l" xlink:type="simple" xlink:actuate="onLoad" xlink:show="embed"/></g><g fill="#FFF"><use x="164.834" y="143.548" xmlns:xlink="http://www.w3.org/1999/xlink" xlink:href="#m" xlink:type="simple" xlink:actuate="onLoad" xlink:show="embed"/></g><g fill="#FFF"><use x="182.225" y="143.548" xmlns:xlink="http://www.w3.org/1999/xlink" xlink:href="#n" xlink:type="simple" xlink:actuate="onLoad" xlink:show="embed"/></g><g fill="#FFF"><use x="200.968" y="143.548" xmlns:xlink="http://www.w3.org/1999/xlink" xlink:href="#o" xlink:type="simple" xlink:actuate="onLoad" xlink:show="embed"/></g><g fill="#FFF"><use x="219.968" y="143.548" xmlns:xlink="http://www.w3.org/1999/xlink" xlink:href="#p" xlink:type="simple" xlink:actuate="onLoad" xlink:show="embed"/></g><g fill="#FFF"><use x="236.777" y="143.548" xmlns:xlink="http://www.w3.org/1999/xlink" xlink:href="#q" xlink:type="simple" xlink:actuate="onLoad" xlink:show="embed"/></g><g fill="#FFF"><use x="130.697" y="232.686" xmlns:xlink="http://www.w3.org/1999/xlink" xlink:href="#r" xlink:type="simple" xlink:actuate="onLoad" xlink:show="embed"/></g><g fill="#FFF"><use x="141.703" y="232.686" xmlns:xlink="http://www.w3.org/1999/xlink" xlink:href="#s" xlink:type="simple" xlink:actuate="onLoad" xlink:show="embed"/></g><g fill="#FFF"><use x="152.002" y="232.686" xmlns:xlink="http://www.w3.org/1999/xlink" xlink:href="#t" xlink:type="simple" xlink:actuate="onLoad" xlink:show="embed"/></g><g fill="#FFF"><use x="163.179" y="232.686" xmlns:xlink="http://www.w3.org/1999/xlink" xlink:href="#u" xlink:type="simple" xlink:actuate="onLoad" xlink:show="embed"/></g><g fill="#FFF"><use x="173.438" y="232.686" xmlns:xlink="http://www.w3.org/1999/xlink" xlink:href="#v" xlink:type="simple" xlink:actuate="onLoad" xlink:show="embed"/></g><g fill="#FFF"><use x="184.317" y="232.686" xmlns:xlink="http://www.w3.org/1999/xlink" xlink:href="#w" xlink:type="simple" xlink:actuate="onLoad" xlink:show="embed"/></g><g fill="#FFF"><use x="194.503" y="232.686" xmlns:xlink="http://www.w3.org/1999/xlink" xlink:href="#u" xlink:type="simple" xlink:actuate="onLoad" xlink:show="embed"/></g><g fill="#FFF"><use x="204.763" y="232.686" xmlns:xlink="http://www.w3.org/1999/xlink" xlink:href="#r" xlink:type="simple" xlink:actuate="onLoad" xlink:show="embed"/></g><g fill="#FFF"><use x="215.769" y="232.686" xmlns:xlink="http://www.w3.org/1999/xlink" xlink:href="#x" xlink:type="simple" xlink:actuate="onLoad" xlink:show="embed"/></g><g fill="#FFF"><use x="227.746" y="232.686" xmlns:xlink="http://www.w3.org/1999/xlink" xlink:href="#v" xlink:type="simple" xlink:actuate="onLoad" xlink:show="embed"/></g><g fill="#FFF"><use x="238.625" y="232.686" xmlns:xlink="http://www.w3.org/1999/xlink" xlink:href="#y" xlink:type="simple" xlink:actuate="onLoad" xlink:show="embed"/></g><g fill="#FFF"><use x="246.112" y="232.686" xmlns:xlink="http://www.w3.org/1999/xlink" xlink:href="#z" xlink:type="simple" xlink:actuate="onLoad" xlink:show="embed"/></g><g fill="#FFF"><use x="256.342" y="232.686" xmlns:xlink="http://www.w3.org/1999/xlink" xlink:href="#s" xlink:type="simple" xlink:actuate="onLoad" xlink:show="embed"/></g><g fill="#FFF"><use x="266.641" y="232.686" xmlns:xlink="http://www.w3.org/1999/xlink" xlink:href="#A" xlink:type="simple" xlink:actuate="onLoad" xlink:show="embed"/></g><g fill="#FFF"><use x="273.937" y="232.686" xmlns:xlink="http://www.w3.org/1999/xlink" xlink:href="#t" xlink:type="simple" xlink:actuate="onLoad" xlink:show="embed"/></g><g fill="#FFF"><use x="285.114" y="232.686" xmlns:xlink="http://www.w3.org/1999/xlink" xlink:href="#B" xlink:type="simple" xlink:actuate="onLoad" xlink:show="embed"/></g><g fill="#FFF"><use x="295.003" y="232.686" xmlns:xlink="http://www.w3.org/1999/xlink" xlink:href="#C" xlink:type="simple" xlink:actuate="onLoad" xlink:show="embed"/></g><g fill="#FFF"><use x="307.488" y="232.686" xmlns:xlink="http://www.w3.org/1999/xlink" xlink:href="#D" xlink:type="simple" xlink:actuate="onLoad" xlink:show="embed"/></g></svg>