<svg id="visual" viewBox="0 0 1100 600" width="1100" height="600" xmlns="http://www.w3.org/2000/svg" xmlns:xlink="http://www.w3.org/1999/xlink" version="1.1"><rect x="0" y="0" width="1100" height="600" fill="#112036"></rect><path d="M882 600L866 550L900 500L862 450L904 400L839 350L903 300L902 250L842 200L833 150L866 100L895 50L829 0L1100 0L1100 50L1100 100L1100 150L1100 200L1100 250L1100 300L1100 350L1100 400L1100 450L1100 500L1100 550L1100 600Z" fill="#7ab9ed"></path><path d="M984 600L902 550L903 500L898 450L928 400L921 350L967 300L917 250L957 200L961 150L945 100L889 50L925 0L1100 0L1100 50L1100 100L1100 150L1100 200L1100 250L1100 300L1100 350L1100 400L1100 450L1100 500L1100 550L1100 600Z" fill="#489bfc"></path><path d="M1002 600L1016 550L956 500L1002 450L952 400L967 350L1011 300L987 250L962 200L1000 150L945 100L1018 50L1002 0L1100 0L1100 50L1100 100L1100 150L1100 200L1100 250L1100 300L1100 350L1100 400L1100 450L1100 500L1100 550L1100 600Z" fill="#5474ff"></path><path d="M1012 600L1054 550L1048 500L1013 450L1045 400L1048 350L1029 300L1052 250L1019 200L1046 150L1066 100L1039 50L1051 0L1100 0L1100 50L1100 100L1100 150L1100 200L1100 250L1100 300L1100 350L1100 400L1100 450L1100 500L1100 550L1100 600Z" fill="#8c32ec"></path></svg>