<svg id="visual" viewBox="0 0 900 600" width="900" height="600" xmlns="http://www.w3.org/2000/svg" xmlns:xlink="http://www.w3.org/1999/xlink" version="1.1"><path d="M0 526L21.5 526.5C43 527 86 528 128.8 523.7C171.7 519.3 214.3 509.7 257.2 502C300 494.3 343 488.7 385.8 488.2C428.7 487.7 471.3 492.3 514.2 490.7C557 489 600 481 642.8 484.8C685.7 488.7 728.3 504.3 771.2 504.8C814 505.3 857 490.7 878.5 483.3L900 476L900 601L878.5 601C857 601 814 601 771.2 601C728.3 601 685.7 601 642.8 601C600 601 557 601 514.2 601C471.3 601 428.7 601 385.8 601C343 601 300 601 257.2 601C214.3 601 171.7 601 128.8 601C86 601 43 601 21.5 601L0 601Z" fill="#ab90d3"></path></svg>