<svg id="visual" viewBox="0 0 960 540" width="960" height="540" xmlns="http://www.w3.org/2000/svg" xmlns:xlink="http://www.w3.org/1999/xlink" version="1.1"><path d="M0 373L22.8 374C45.7 375 91.3 377 137 391.3C182.7 405.7 228.3 432.3 274 444.2C319.7 456 365.3 453 411.2 444.7C457 436.3 503 422.7 548.8 418.5C594.7 414.3 640.3 419.7 686 410.5C731.7 401.3 777.3 377.7 823 365.5C868.7 353.3 914.3 352.7 937.2 352.3L960 352L960 541L937.2 541C914.3 541 868.7 541 823 541C777.3 541 731.7 541 686 541C640.3 541 594.7 541 548.8 541C503 541 457 541 411.2 541C365.3 541 319.7 541 274 541C228.3 541 182.7 541 137 541C91.3 541 45.7 541 22.8 541L0 541Z" fill="#AD94FF" stroke-linecap="round" stroke-linejoin="miter"></path></svg>