<svg id="visual" viewBox="0 0 960 540" width="960" height="540" xmlns="http://www.w3.org/2000/svg" xmlns:xlink="http://www.w3.org/1999/xlink" version="1.1"><path d="M0 350L16 353.5C32 357 64 364 96 368.2C128 372.3 160 373.7 192 379.8C224 386 256 397 288 403.3C320 409.7 352 411.3 384 403.2C416 395 448 377 480 371.5C512 366 544 373 576 371C608 369 640 358 672 371C704 384 736 421 768 433.3C800 445.7 832 433.3 864 424.8C896 416.3 928 411.7 944 409.3L960 407L960 541L944 541C928 541 896 541 864 541C832 541 800 541 768 541C736 541 704 541 672 541C640 541 608 541 576 541C544 541 512 541 480 541C448 541 416 541 384 541C352 541 320 541 288 541C256 541 224 541 192 541C160 541 128 541 96 541C64 541 32 541 16 541L0 541Z" fill="#351d86" stroke-linecap="round" stroke-linejoin="miter"></path></svg>