<svg id="visual" viewBox="0 0 960 540" width="960" height="540" xmlns="http://www.w3.org/2000/svg" xmlns:xlink="http://www.w3.org/1999/xlink" version="1.1"><path d="M0 106L22.8 105.3C45.7 104.7 91.3 103.3 137 106.2C182.7 109 228.3 116 274 113.7C319.7 111.3 365.3 99.7 411.2 94.7C457 89.7 503 91.3 548.8 90.2C594.7 89 640.3 85 686 83.5C731.7 82 777.3 83 823 101.5C868.7 120 914.3 156 937.2 174L960 192L960 0L937.2 0C914.3 0 868.7 0 823 0C777.3 0 731.7 0 686 0C640.3 0 594.7 0 548.8 0C503 0 457 0 411.2 0C365.3 0 319.7 0 274 0C228.3 0 182.7 0 137 0C91.3 0 45.7 0 22.8 0L0 0Z" fill="#AD94FF" stroke-linecap="round" stroke-linejoin="miter"></path></svg>