<svg id="visual" viewBox="0 0 900 600" width="900" height="600" xmlns="http://www.w3.org/2000/svg" xmlns:xlink="http://www.w3.org/1999/xlink" version="1.1"><rect x="0" y="0" width="900" height="600" fill="#112036"></rect><path d="M0 461L75 461L150 413L225 445L300 462L375 491L450 438L525 492L600 477L675 434L750 415L825 457L900 471L900 601L825 601L750 601L675 601L600 601L525 601L450 601L375 601L300 601L225 601L150 601L75 601L0 601Z" fill="#8c32ec"></path><path d="M0 519L75 464L150 459L225 510L300 465L375 465L450 517L525 514L600 525L675 469L750 525L825 480L900 499L900 601L825 601L750 601L675 601L600 601L525 601L450 601L375 601L300 601L225 601L150 601L75 601L0 601Z" fill="#4489ff"></path><path d="M0 536L75 555L150 548L225 560L300 531L375 535L450 528L525 561L600 514L675 535L750 558L825 558L900 550L900 601L825 601L750 601L675 601L600 601L525 601L450 601L375 601L300 601L225 601L150 601L75 601L0 601Z" fill="#7ab9ed"></path></svg>