<svg id="visual" viewBox="0 0 1100 600" width="1100" height="600" xmlns="http://www.w3.org/2000/svg" xmlns:xlink="http://www.w3.org/1999/xlink" version="1.1"><rect x="0" y="0" width="1100" height="600" fill="#112036"></rect><path d="M220 0L236 50L202 100L240 150L198 200L263 250L199 300L200 350L260 400L269 450L236 500L207 550L273 600L0 600L0 550L0 500L0 450L0 400L0 350L0 300L0 250L0 200L0 150L0 100L0 50L0 0Z" fill="#66b1ef"></path><path d="M118 0L200 50L199 100L204 150L174 200L181 250L135 300L185 350L145 400L141 450L157 500L213 550L177 600L0 600L0 550L0 500L0 450L0 400L0 350L0 300L0 250L0 200L0 150L0 100L0 50L0 0Z" fill="#418eee"></path><path d="M100 0L86 50L146 100L100 150L150 200L135 250L91 300L115 350L140 400L102 450L157 500L84 550L100 600L0 600L0 550L0 500L0 450L0 400L0 350L0 300L0 250L0 200L0 150L0 100L0 50L0 0Z" fill="#4f64e0"></path><path d="M90 0L48 50L54 100L89 150L57 200L54 250L73 300L50 350L83 400L56 450L36 500L63 550L51 600L0 600L0 550L0 500L0 450L0 400L0 350L0 300L0 250L0 200L0 150L0 100L0 50L0 0Z" fill="#7227c2"></path></svg>