<svg xmlns="http://www.w3.org/2000/svg" xmlns:xlink="http://www.w3.org/1999/xlink" width="1500" viewBox="0 0 1500 562.5" height="562.5" version="1.0"><defs><g id="a"><path d="M 35.40625 -35.078125 C 36.9375 -35.078125 37.988281 -34.898438 38.5625 -34.546875 C 39.132812 -34.203125 39.421875 -33.597656 39.421875 -32.734375 L 39.421875 -20.84375 C 39.421875 -20 39.039062 -19.394531 38.28125 -19.03125 C 37.53125 -18.675781 36.273438 -18.5 34.515625 -18.5 C 33.359375 -18.5 32.460938 -18.578125 31.828125 -18.734375 C 31.203125 -18.898438 30.765625 -19.144531 30.515625 -19.46875 C 30.265625 -19.789062 30.140625 -20.25 30.140625 -20.84375 C 30.140625 -21.875 29.882812 -22.832031 29.375 -23.71875 C 28.875 -24.613281 28.125 -25.328125 27.125 -25.859375 C 26.125 -26.390625 24.921875 -26.65625 23.515625 -26.65625 C 21.734375 -26.65625 20.171875 -26.265625 18.828125 -25.484375 C 17.492188 -24.710938 16.460938 -23.601562 15.734375 -22.15625 C 15.003906 -20.707031 14.640625 -19.03125 14.640625 -17.125 C 14.640625 -15.226562 15.003906 -13.554688 15.734375 -12.109375 C 16.460938 -10.660156 17.492188 -9.546875 18.828125 -8.765625 C 20.171875 -7.984375 21.734375 -7.59375 23.515625 -7.59375 C 25.410156 -7.59375 27.351562 -7.898438 29.34375 -8.515625 C 31.332031 -9.140625 33.269531 -10 35.15625 -11.09375 C 35.59375 -11.332031 36 -11.453125 36.375 -11.453125 C 37.488281 -11.453125 38.460938 -10.476562 39.296875 -8.53125 C 39.742188 -7.46875 39.96875 -6.566406 39.96875 -5.828125 C 39.96875 -4.710938 39.4375 -3.859375 38.375 -3.265625 C 36.070312 -1.972656 33.65625 -0.96875 31.125 -0.25 C 28.59375 0.457031 26.054688 0.8125 23.515625 0.8125 C 19.753906 0.8125 16.453125 0.046875 13.609375 -1.484375 C 10.765625 -3.015625 8.566406 -5.140625 7.015625 -7.859375 C 5.472656 -10.578125 4.703125 -13.664062 4.703125 -17.125 C 4.703125 -20.59375 5.476562 -23.691406 7.03125 -26.421875 C 8.59375 -29.148438 10.710938 -31.273438 13.390625 -32.796875 C 16.078125 -34.316406 19.078125 -35.078125 22.390625 -35.078125 C 26.398438 -35.078125 29.234375 -33.628906 30.890625 -30.734375 L 30.890625 -32.734375 C 30.890625 -33.578125 31.242188 -34.175781 31.953125 -34.53125 C 32.671875 -34.894531 33.820312 -35.078125 35.40625 -35.078125 Z M 35.40625 -35.078125"/></g><g id="b"><path d="M 41.71875 -34.265625 C 42.3125 -34.265625 42.765625 -34.15625 43.078125 -33.9375 C 43.398438 -33.726562 43.640625 -33.351562 43.796875 -32.8125 C 43.960938 -32.269531 44.046875 -31.476562 44.046875 -30.4375 C 44.046875 -29.40625 43.960938 -28.613281 43.796875 -28.0625 C 43.640625 -27.519531 43.398438 -27.148438 43.078125 -26.953125 C 42.765625 -26.753906 42.3125 -26.65625 41.71875 -26.65625 L 39.34375 -26.65625 L 25.140625 2.109375 C 23.410156 5.597656 21.757812 8.25 20.1875 10.0625 C 18.613281 11.882812 16.820312 13.171875 14.8125 13.921875 C 12.800781 14.671875 10.203125 15.097656 7.015625 15.203125 C 6.117188 15.222656 5.441406 14.882812 4.984375 14.1875 C 4.523438 13.5 4.296875 12.242188 4.296875 10.421875 C 4.296875 9.160156 4.460938 8.253906 4.796875 7.703125 C 5.128906 7.160156 5.609375 6.867188 6.234375 6.828125 C 8.179688 6.703125 9.765625 6.328125 10.984375 5.703125 C 12.210938 5.085938 13.328125 4.101562 14.328125 2.75 C 15.328125 1.40625 16.535156 -0.625 17.953125 -3.34375 L 6.59375 -26.65625 L 3.8125 -26.65625 C 3.21875 -26.65625 2.757812 -26.753906 2.4375 -26.953125 C 2.125 -27.148438 1.882812 -27.519531 1.71875 -28.0625 C 1.5625 -28.613281 1.484375 -29.40625 1.484375 -30.4375 C 1.484375 -31.476562 1.5625 -32.269531 1.71875 -32.8125 C 1.882812 -33.351562 2.125 -33.726562 2.4375 -33.9375 C 2.757812 -34.15625 3.21875 -34.265625 3.8125 -34.265625 L 18.796875 -34.265625 C 19.390625 -34.265625 19.847656 -34.15625 20.171875 -33.9375 C 20.492188 -33.726562 20.734375 -33.351562 20.890625 -32.8125 C 21.054688 -32.269531 21.140625 -31.476562 21.140625 -30.4375 C 21.140625 -29.40625 21.054688 -28.613281 20.890625 -28.0625 C 20.734375 -27.519531 20.492188 -27.148438 20.171875 -26.953125 C 19.847656 -26.753906 19.390625 -26.65625 18.796875 -26.65625 L 16.578125 -26.65625 L 23.03125 -12.5625 L 29.484375 -26.65625 L 27.46875 -26.65625 C 26.875 -26.65625 26.414062 -26.753906 26.09375 -26.953125 C 25.78125 -27.148438 25.539062 -27.519531 25.375 -28.0625 C 25.21875 -28.613281 25.140625 -29.40625 25.140625 -30.4375 C 25.140625 -31.476562 25.21875 -32.269531 25.375 -32.8125 C 25.539062 -33.351562 25.78125 -33.726562 26.09375 -33.9375 C 26.414062 -34.15625 26.875 -34.265625 27.46875 -34.265625 Z M 41.71875 -34.265625"/></g><g id="c"><path d="M 13.875 -48.640625 C 14.707031 -48.640625 15.300781 -48.460938 15.65625 -48.109375 C 16.019531 -47.753906 16.203125 -47.15625 16.203125 -46.3125 L 16.203125 -30.703125 C 17.460938 -32.109375 18.921875 -33.1875 20.578125 -33.9375 C 22.234375 -34.695312 24.023438 -35.078125 25.953125 -35.078125 C 29.191406 -35.078125 32.019531 -34.285156 34.4375 -32.703125 C 36.863281 -31.117188 38.71875 -28.96875 40 -26.25 C 41.289062 -23.53125 41.9375 -20.488281 41.9375 -17.125 C 41.9375 -13.769531 41.289062 -10.734375 40 -8.015625 C 38.71875 -5.296875 36.863281 -3.144531 34.4375 -1.5625 C 32.019531 0.0195312 29.191406 0.8125 25.953125 0.8125 C 23.609375 0.8125 21.46875 0.265625 19.53125 -0.828125 C 17.601562 -1.929688 16 -3.472656 14.71875 -5.453125 L 14.71875 -2.34375 C 14.71875 -1.5 14.535156 -0.894531 14.171875 -0.53125 C 13.816406 -0.175781 13.222656 0 12.390625 0 L 4.078125 0 C 3.484375 0 3.023438 -0.101562 2.703125 -0.3125 C 2.378906 -0.519531 2.140625 -0.894531 1.984375 -1.4375 C 1.828125 -1.988281 1.75 -2.78125 1.75 -3.8125 C 1.75 -4.851562 1.828125 -5.644531 1.984375 -6.1875 C 2.140625 -6.738281 2.378906 -7.109375 2.703125 -7.296875 C 3.023438 -7.492188 3.484375 -7.59375 4.078125 -7.59375 L 6.9375 -7.59375 L 6.9375 -41.046875 L 3.34375 -41.046875 C 2.75 -41.046875 2.289062 -41.144531 1.96875 -41.34375 C 1.644531 -41.539062 1.398438 -41.910156 1.234375 -42.453125 C 1.078125 -42.992188 1 -43.785156 1 -44.828125 C 1 -45.867188 1.078125 -46.660156 1.234375 -47.203125 C 1.398438 -47.742188 1.644531 -48.117188 1.96875 -48.328125 C 2.289062 -48.535156 2.75 -48.640625 3.34375 -48.640625 Z M 24.46875 -26.65625 C 22.882812 -26.65625 21.453125 -26.285156 20.171875 -25.546875 C 18.890625 -24.804688 17.863281 -23.710938 17.09375 -22.265625 C 16.320312 -20.816406 15.9375 -19.101562 15.9375 -17.125 C 15.9375 -15.15625 16.320312 -13.445312 17.09375 -12 C 17.863281 -10.550781 18.890625 -9.453125 20.171875 -8.703125 C 21.453125 -7.960938 22.882812 -7.59375 24.46875 -7.59375 C 26 -7.59375 27.332031 -7.984375 28.46875 -8.765625 C 29.613281 -9.546875 30.488281 -10.648438 31.09375 -12.078125 C 31.695312 -13.515625 32 -15.195312 32 -17.125 C 32 -19.050781 31.695312 -20.734375 31.09375 -22.171875 C 30.488281 -23.609375 29.613281 -24.710938 28.46875 -25.484375 C 27.332031 -26.265625 26 -26.65625 24.46875 -26.65625 Z M 24.46875 -26.65625"/></g><g id="d"><path d="M 23.28125 -35.078125 C 27.039062 -35.078125 30.242188 -34.265625 32.890625 -32.640625 C 35.535156 -31.023438 37.53125 -28.773438 38.875 -25.890625 C 40.21875 -23.015625 40.890625 -19.722656 40.890625 -16.015625 C 40.890625 -15.171875 40.710938 -14.578125 40.359375 -14.234375 C 40.003906 -13.890625 39.40625 -13.71875 38.5625 -13.71875 L 14.75 -13.71875 C 15.226562 -11.738281 16.238281 -10.222656 17.78125 -9.171875 C 19.320312 -8.117188 21.28125 -7.59375 23.65625 -7.59375 C 27.488281 -7.59375 31.640625 -8.273438 36.109375 -9.640625 C 36.410156 -9.734375 36.707031 -9.78125 37 -9.78125 C 37.550781 -9.78125 38.019531 -9.535156 38.40625 -9.046875 C 38.800781 -8.554688 39.160156 -7.71875 39.484375 -6.53125 C 39.734375 -5.613281 39.859375 -4.832031 39.859375 -4.1875 C 39.859375 -3.539062 39.710938 -3.039062 39.421875 -2.6875 C 39.140625 -2.332031 38.679688 -2.039062 38.046875 -1.8125 C 35.566406 -1 33.039062 -0.359375 30.46875 0.109375 C 27.90625 0.578125 25.390625 0.8125 22.921875 0.8125 C 19.160156 0.8125 15.921875 0.046875 13.203125 -1.484375 C 10.484375 -3.015625 8.410156 -5.132812 6.984375 -7.84375 C 5.566406 -10.550781 4.859375 -13.644531 4.859375 -17.125 C 4.859375 -20.59375 5.597656 -23.6875 7.078125 -26.40625 C 8.566406 -29.125 10.707031 -31.25 13.5 -32.78125 C 16.289062 -34.3125 19.550781 -35.078125 23.28125 -35.078125 Z M 23.28125 -26.65625 C 18.757812 -26.65625 15.96875 -24.753906 14.90625 -20.953125 L 31.21875 -20.953125 C 30.800781 -22.753906 29.90625 -24.15625 28.53125 -25.15625 C 27.15625 -26.15625 25.40625 -26.65625 23.28125 -26.65625 Z M 23.28125 -26.65625"/></g><g id="e"><path d="M 34.375 -35.078125 C 36.476562 -35.078125 38.457031 -34.382812 40.3125 -33 C 41.394531 -32.207031 41.9375 -31.171875 41.9375 -29.890625 C 41.9375 -29.066406 41.710938 -28.101562 41.265625 -27 C 40.816406 -25.882812 40.316406 -25.039062 39.765625 -24.46875 C 39.210938 -23.90625 38.625 -23.625 38 -23.625 C 37.65625 -23.625 37.285156 -23.722656 36.890625 -23.921875 C 35.503906 -24.679688 34.070312 -25.0625 32.59375 -25.0625 C 30.6875 -25.0625 28.90625 -24.457031 27.25 -23.25 C 25.59375 -22.039062 24.265625 -20.367188 23.265625 -18.234375 C 22.265625 -16.109375 21.765625 -13.738281 21.765625 -11.125 L 21.765625 -7.59375 L 32.40625 -7.59375 C 33 -7.59375 33.457031 -7.488281 33.78125 -7.28125 C 34.101562 -7.070312 34.34375 -6.695312 34.5 -6.15625 C 34.664062 -5.613281 34.75 -4.820312 34.75 -3.78125 C 34.75 -2.738281 34.664062 -1.945312 34.5 -1.40625 C 34.34375 -0.863281 34.101562 -0.492188 33.78125 -0.296875 C 33.457031 -0.0976562 33 0 32.40625 0 L 7.046875 0 C 6.453125 0 5.992188 -0.0976562 5.671875 -0.296875 C 5.347656 -0.492188 5.101562 -0.863281 4.9375 -1.40625 C 4.78125 -1.945312 4.703125 -2.738281 4.703125 -3.78125 C 4.703125 -4.820312 4.78125 -5.613281 4.9375 -6.15625 C 5.101562 -6.695312 5.347656 -7.070312 5.671875 -7.28125 C 5.992188 -7.488281 6.453125 -7.59375 7.046875 -7.59375 L 12.5 -7.59375 L 12.5 -26.65625 L 8.15625 -26.65625 C 7.5625 -26.65625 7.101562 -26.753906 6.78125 -26.953125 C 6.457031 -27.148438 6.21875 -27.519531 6.0625 -28.0625 C 5.90625 -28.613281 5.828125 -29.40625 5.828125 -30.4375 C 5.828125 -31.476562 5.90625 -32.269531 6.0625 -32.8125 C 6.21875 -33.351562 6.457031 -33.726562 6.78125 -33.9375 C 7.101562 -34.15625 7.5625 -34.265625 8.15625 -34.265625 L 18.3125 -34.265625 C 19.15625 -34.265625 19.753906 -34.082031 20.109375 -33.71875 C 20.472656 -33.363281 20.65625 -32.765625 20.65625 -31.921875 L 20.65625 -23.875 C 22.507812 -27.457031 24.640625 -30.21875 27.046875 -32.15625 C 29.460938 -34.101562 31.90625 -35.078125 34.375 -35.078125 Z M 34.375 -35.078125"/></g><g id="j"><path d="M 22.765625 -35.078125 C 26.523438 -35.078125 29.8125 -34.3125 32.625 -32.78125 C 35.445312 -31.25 37.617188 -29.125 39.140625 -26.40625 C 40.660156 -23.6875 41.421875 -20.59375 41.421875 -17.125 C 41.421875 -13.664062 40.660156 -10.578125 39.140625 -7.859375 C 37.617188 -5.140625 35.445312 -3.015625 32.625 -1.484375 C 29.8125 0.046875 26.523438 0.8125 22.765625 0.8125 C 19.003906 0.8125 15.710938 0.046875 12.890625 -1.484375 C 10.078125 -3.015625 7.910156 -5.140625 6.390625 -7.859375 C 4.867188 -10.578125 4.109375 -13.664062 4.109375 -17.125 C 4.109375 -20.59375 4.867188 -23.6875 6.390625 -26.40625 C 7.910156 -29.125 10.078125 -31.25 12.890625 -32.78125 C 15.710938 -34.3125 19.003906 -35.078125 22.765625 -35.078125 Z M 22.765625 -26.65625 C 20.984375 -26.65625 19.4375 -26.265625 18.125 -25.484375 C 16.820312 -24.710938 15.816406 -23.609375 15.109375 -22.171875 C 14.398438 -20.734375 14.046875 -19.050781 14.046875 -17.125 C 14.046875 -15.195312 14.398438 -13.515625 15.109375 -12.078125 C 15.816406 -10.648438 16.820312 -9.546875 18.125 -8.765625 C 19.4375 -7.984375 20.984375 -7.59375 22.765625 -7.59375 C 24.546875 -7.59375 26.085938 -7.984375 27.390625 -8.765625 C 28.703125 -9.546875 29.710938 -10.648438 30.421875 -12.078125 C 31.128906 -13.515625 31.484375 -15.195312 31.484375 -17.125 C 31.484375 -19.050781 31.128906 -20.734375 30.421875 -22.171875 C 29.710938 -23.609375 28.703125 -24.710938 27.390625 -25.484375 C 26.085938 -26.265625 24.546875 -26.65625 22.765625 -26.65625 Z M 22.765625 -26.65625"/></g><g id="k"><path d="M 36.265625 -48.640625 C 37.109375 -48.640625 37.707031 -48.460938 38.0625 -48.109375 C 38.414062 -47.753906 38.59375 -47.15625 38.59375 -46.3125 L 38.59375 -7.59375 L 41.828125 -7.59375 C 42.421875 -7.59375 42.875 -7.492188 43.1875 -7.296875 C 43.507812 -7.109375 43.75 -6.738281 43.90625 -6.1875 C 44.070312 -5.644531 44.15625 -4.851562 44.15625 -3.8125 C 44.15625 -2.78125 44.070312 -1.988281 43.90625 -1.4375 C 43.75 -0.894531 43.507812 -0.519531 43.1875 -0.3125 C 42.875 -0.101562 42.421875 0 41.828125 0 L 33.15625 0 C 32.3125 0 31.707031 -0.175781 31.34375 -0.53125 C 30.988281 -0.894531 30.8125 -1.5 30.8125 -2.34375 L 30.8125 -5.453125 C 29.53125 -3.472656 27.921875 -1.929688 25.984375 -0.828125 C 24.054688 0.265625 21.921875 0.8125 19.578125 0.8125 C 16.335938 0.8125 13.503906 0.0195312 11.078125 -1.5625 C 8.660156 -3.144531 6.804688 -5.296875 5.515625 -8.015625 C 4.234375 -10.734375 3.59375 -13.769531 3.59375 -17.125 C 3.59375 -20.488281 4.234375 -23.53125 5.515625 -26.25 C 6.804688 -28.96875 8.660156 -31.117188 11.078125 -32.703125 C 13.503906 -34.285156 16.335938 -35.078125 19.578125 -35.078125 C 21.503906 -35.078125 23.296875 -34.695312 24.953125 -33.9375 C 26.609375 -33.1875 28.066406 -32.109375 29.328125 -30.703125 L 29.328125 -41.046875 L 23.875 -41.046875 C 23.28125 -41.046875 22.820312 -41.144531 22.5 -41.34375 C 22.1875 -41.539062 21.945312 -41.910156 21.78125 -42.453125 C 21.625 -42.992188 21.546875 -43.785156 21.546875 -44.828125 C 21.546875 -45.867188 21.625 -46.660156 21.78125 -47.203125 C 21.945312 -47.742188 22.1875 -48.117188 22.5 -48.328125 C 22.820312 -48.535156 23.28125 -48.640625 23.875 -48.640625 Z M 21.0625 -26.65625 C 19.53125 -26.65625 18.191406 -26.265625 17.046875 -25.484375 C 15.910156 -24.710938 15.039062 -23.609375 14.4375 -22.171875 C 13.832031 -20.734375 13.53125 -19.050781 13.53125 -17.125 C 13.53125 -15.195312 13.832031 -13.515625 14.4375 -12.078125 C 15.039062 -10.648438 15.910156 -9.546875 17.046875 -8.765625 C 18.191406 -7.984375 19.53125 -7.59375 21.0625 -7.59375 C 22.644531 -7.59375 24.078125 -7.960938 25.359375 -8.703125 C 26.648438 -9.453125 27.675781 -10.550781 28.4375 -12 C 29.207031 -13.445312 29.59375 -15.15625 29.59375 -17.125 C 29.59375 -19.101562 29.207031 -20.816406 28.4375 -22.265625 C 27.675781 -23.710938 26.648438 -24.804688 25.359375 -25.546875 C 24.078125 -26.285156 22.644531 -26.65625 21.0625 -26.65625 Z M 21.0625 -26.65625"/></g><g id="l"><path d="M 25.21875 -48.640625 C 26.050781 -48.640625 26.644531 -48.460938 27 -48.109375 C 27.363281 -47.753906 27.546875 -47.15625 27.546875 -46.3125 L 27.546875 -7.59375 L 37.96875 -7.59375 C 38.5625 -7.59375 39.019531 -7.488281 39.34375 -7.28125 C 39.664062 -7.070312 39.90625 -6.695312 40.0625 -6.15625 C 40.226562 -5.613281 40.3125 -4.820312 40.3125 -3.78125 C 40.3125 -2.738281 40.226562 -1.945312 40.0625 -1.40625 C 39.90625 -0.863281 39.664062 -0.492188 39.34375 -0.296875 C 39.019531 -0.0976562 38.5625 0 37.96875 0 L 8.15625 0 C 7.5625 0 7.101562 -0.0976562 6.78125 -0.296875 C 6.457031 -0.492188 6.21875 -0.863281 6.0625 -1.40625 C 5.90625 -1.945312 5.828125 -2.738281 5.828125 -3.78125 C 5.828125 -4.820312 5.90625 -5.613281 6.0625 -6.15625 C 6.21875 -6.695312 6.457031 -7.070312 6.78125 -7.28125 C 7.101562 -7.488281 7.5625 -7.59375 8.15625 -7.59375 L 18.28125 -7.59375 L 18.28125 -41.046875 L 9.640625 -41.046875 C 9.046875 -41.046875 8.585938 -41.144531 8.265625 -41.34375 C 7.941406 -41.539062 7.695312 -41.910156 7.53125 -42.453125 C 7.375 -42.992188 7.296875 -43.785156 7.296875 -44.828125 C 7.296875 -45.867188 7.375 -46.660156 7.53125 -47.203125 C 7.695312 -47.742188 7.941406 -48.117188 8.265625 -48.328125 C 8.585938 -48.535156 9.046875 -48.640625 9.640625 -48.640625 Z M 25.21875 -48.640625"/></g><g id="f"><path d="M 36.515625 -40.21875 C 26.109375 -42.03125 20.90625 -47.953125 20.90625 -57.984375 L 20.90625 -78.609375 C 20.90625 -87.609375 15.613281 -92.25 5.03125 -92.53125 L 5.03125 -102.25 C 13.613281 -102.25 20.363281 -100.21875 25.28125 -96.15625 C 30.195312 -92.101562 32.65625 -86.507812 32.65625 -79.375 L 32.65625 -57.984375 C 32.65625 -53.453125 34.03125 -50.125 36.78125 -48 C 39.539062 -45.882812 43.945312 -44.78125 50 -44.6875 L 50 -34.828125 C 44.3125 -34.828125 40 -33.789062 37.0625 -31.71875 C 34.125 -29.644531 32.65625 -26.179688 32.65625 -21.328125 L 32.65625 -0.140625 C 32.65625 6.992188 30.265625 12.550781 25.484375 16.53125 C 20.710938 20.519531 13.894531 22.5625 5.03125 22.65625 L 5.03125 12.875 C 10.207031 12.78125 14.144531 11.660156 16.84375 9.515625 C 19.550781 7.367188 20.90625 3.914062 20.90625 -0.84375 L 20.90625 -21.609375 C 20.90625 -26.921875 22.1875 -30.976562 24.75 -33.78125 C 27.320312 -36.582031 31.242188 -38.445312 36.515625 -39.375 Z M 36.515625 -40.21875"/></g><g id="g"><path d="M -36.515625 40.21875 C -26.109375 42.03125 -20.90625 47.953125 -20.90625 57.984375 L -20.90625 78.609375 C -20.90625 87.609375 -15.613281 92.25 -5.03125 92.53125 L -5.03125 102.25 C -13.613281 102.25 -20.363281 100.21875 -25.28125 96.15625 C -30.195312 92.101562 -32.65625 86.507812 -32.65625 79.375 L -32.65625 57.984375 C -32.65625 53.453125 -34.03125 50.125 -36.78125 48 C -39.539062 45.882812 -43.945312 44.78125 -50 44.6875 L -50 34.828125 C -44.3125 34.828125 -40 33.789062 -37.0625 31.71875 C -34.125 29.644531 -32.65625 26.179688 -32.65625 21.328125 L -32.65625 0.140625 C -32.65625 -6.992188 -30.265625 -12.550781 -25.484375 -16.53125 C -20.710938 -20.519531 -13.894531 -22.5625 -5.03125 -22.65625 L -5.03125 -12.875 C -10.207031 -12.78125 -14.144531 -11.660156 -16.84375 -9.515625 C -19.550781 -7.367188 -20.90625 -3.914062 -20.90625 0.84375 L -20.90625 21.609375 C -20.90625 26.921875 -22.1875 30.976562 -24.75 33.78125 C -27.320312 36.582031 -31.242188 38.445312 -36.515625 39.375 Z M -36.515625 40.21875"/></g><g id="h"><path d="M 1.578125 -0.765625 C 1.578125 -1.398438 1.835938 -1.71875 2.359375 -1.71875 C 2.890625 -1.71875 3.15625 -1.398438 3.15625 -0.765625 C 3.15625 -0.128906 2.890625 0.1875 2.359375 0.1875 C 1.835938 0.1875 1.578125 -0.128906 1.578125 -0.765625 Z M 1.578125 -0.765625"/></g><g id="m"><path d="M 15.921875 -15.765625 C 16.609375 -15.765625 17.078125 -15.6875 17.328125 -15.53125 C 17.585938 -15.375 17.71875 -15.101562 17.71875 -14.71875 L 17.71875 -9.375 C 17.71875 -8.988281 17.546875 -8.710938 17.203125 -8.546875 C 16.867188 -8.390625 16.304688 -8.3125 15.515625 -8.3125 C 14.992188 -8.3125 14.59375 -8.347656 14.3125 -8.421875 C 14.03125 -8.492188 13.832031 -8.601562 13.71875 -8.75 C 13.601562 -8.894531 13.546875 -9.101562 13.546875 -9.375 C 13.546875 -9.832031 13.429688 -10.257812 13.203125 -10.65625 C 12.984375 -11.0625 12.644531 -11.382812 12.1875 -11.625 C 11.738281 -11.863281 11.195312 -11.984375 10.5625 -11.984375 C 9.769531 -11.984375 9.070312 -11.804688 8.46875 -11.453125 C 7.863281 -11.109375 7.394531 -10.609375 7.0625 -9.953125 C 6.738281 -9.304688 6.578125 -8.554688 6.578125 -7.703125 C 6.578125 -6.847656 6.738281 -6.09375 7.0625 -5.4375 C 7.394531 -4.789062 7.863281 -4.289062 8.46875 -3.9375 C 9.070312 -3.59375 9.769531 -3.421875 10.5625 -3.421875 C 11.425781 -3.421875 12.300781 -3.554688 13.1875 -3.828125 C 14.082031 -4.109375 14.953125 -4.492188 15.796875 -4.984375 C 16.003906 -5.097656 16.191406 -5.15625 16.359375 -5.15625 C 16.859375 -5.15625 17.296875 -4.710938 17.671875 -3.828125 C 17.867188 -3.359375 17.96875 -2.957031 17.96875 -2.625 C 17.96875 -2.113281 17.726562 -1.726562 17.25 -1.46875 C 16.21875 -0.882812 15.128906 -0.429688 13.984375 -0.109375 C 12.847656 0.203125 11.707031 0.359375 10.5625 0.359375 C 8.875 0.359375 7.390625 0.015625 6.109375 -0.671875 C 4.835938 -1.359375 3.851562 -2.3125 3.15625 -3.53125 C 2.457031 -4.757812 2.109375 -6.148438 2.109375 -7.703125 C 2.109375 -9.253906 2.457031 -10.644531 3.15625 -11.875 C 3.863281 -13.101562 4.816406 -14.054688 6.015625 -14.734375 C 7.222656 -15.421875 8.570312 -15.765625 10.0625 -15.765625 C 11.863281 -15.765625 13.140625 -15.113281 13.890625 -13.8125 L 13.890625 -14.71875 C 13.890625 -15.09375 14.050781 -15.359375 14.375 -15.515625 C 14.695312 -15.679688 15.210938 -15.765625 15.921875 -15.765625 Z M 15.921875 -15.765625"/></g><g id="n"><path d="M 11.328125 -21.875 C 11.710938 -21.875 11.984375 -21.789062 12.140625 -21.625 C 12.304688 -21.46875 12.390625 -21.203125 12.390625 -20.828125 L 12.390625 -3.421875 L 17.078125 -3.421875 C 17.335938 -3.421875 17.539062 -3.375 17.6875 -3.28125 C 17.832031 -3.1875 17.941406 -3.015625 18.015625 -2.765625 C 18.085938 -2.523438 18.125 -2.171875 18.125 -1.703125 C 18.125 -1.234375 18.085938 -0.875 18.015625 -0.625 C 17.941406 -0.382812 17.832031 -0.21875 17.6875 -0.125 C 17.539062 -0.0390625 17.335938 0 17.078125 0 L 3.671875 0 C 3.398438 0 3.191406 -0.0390625 3.046875 -0.125 C 2.898438 -0.21875 2.789062 -0.382812 2.71875 -0.625 C 2.65625 -0.875 2.625 -1.234375 2.625 -1.703125 C 2.625 -2.171875 2.65625 -2.523438 2.71875 -2.765625 C 2.789062 -3.015625 2.898438 -3.1875 3.046875 -3.28125 C 3.191406 -3.375 3.398438 -3.421875 3.671875 -3.421875 L 8.21875 -3.421875 L 8.21875 -18.453125 L 4.328125 -18.453125 C 4.066406 -18.453125 3.863281 -18.492188 3.71875 -18.578125 C 3.570312 -18.671875 3.460938 -18.835938 3.390625 -19.078125 C 3.316406 -19.328125 3.28125 -19.6875 3.28125 -20.15625 C 3.28125 -20.625 3.316406 -20.976562 3.390625 -21.21875 C 3.460938 -21.46875 3.570312 -21.640625 3.71875 -21.734375 C 3.863281 -21.828125 4.066406 -21.875 4.328125 -21.875 Z M 11.328125 -21.875"/></g><g id="o"><path d="M 10.234375 -15.765625 C 11.921875 -15.765625 13.394531 -15.421875 14.65625 -14.734375 C 15.925781 -14.046875 16.90625 -13.085938 17.59375 -11.859375 C 18.28125 -10.640625 18.625 -9.253906 18.625 -7.703125 C 18.625 -6.148438 18.28125 -4.757812 17.59375 -3.53125 C 16.90625 -2.3125 15.925781 -1.359375 14.65625 -0.671875 C 13.394531 0.015625 11.921875 0.359375 10.234375 0.359375 C 8.546875 0.359375 7.066406 0.015625 5.796875 -0.671875 C 4.535156 -1.359375 3.5625 -2.3125 2.875 -3.53125 C 2.1875 -4.757812 1.84375 -6.148438 1.84375 -7.703125 C 1.84375 -9.253906 2.1875 -10.640625 2.875 -11.859375 C 3.5625 -13.085938 4.535156 -14.046875 5.796875 -14.734375 C 7.066406 -15.421875 8.546875 -15.765625 10.234375 -15.765625 Z M 10.234375 -11.984375 C 9.429688 -11.984375 8.734375 -11.804688 8.140625 -11.453125 C 7.554688 -11.109375 7.101562 -10.613281 6.78125 -9.96875 C 6.46875 -9.320312 6.3125 -8.566406 6.3125 -7.703125 C 6.3125 -6.835938 6.46875 -6.082031 6.78125 -5.4375 C 7.101562 -4.789062 7.554688 -4.289062 8.140625 -3.9375 C 8.734375 -3.59375 9.429688 -3.421875 10.234375 -3.421875 C 11.035156 -3.421875 11.726562 -3.59375 12.3125 -3.9375 C 12.90625 -4.289062 13.359375 -4.789062 13.671875 -5.4375 C 13.992188 -6.082031 14.15625 -6.835938 14.15625 -7.703125 C 14.15625 -8.566406 13.992188 -9.320312 13.671875 -9.96875 C 13.359375 -10.613281 12.90625 -11.109375 12.3125 -11.453125 C 11.726562 -11.804688 11.035156 -11.984375 10.234375 -11.984375 Z M 10.234375 -11.984375"/></g><g id="p"><path d="M 16.15625 -15.40625 C 16.53125 -15.40625 16.796875 -15.320312 16.953125 -15.15625 C 17.117188 -15 17.203125 -14.734375 17.203125 -14.359375 L 17.203125 -3.421875 L 18.484375 -3.421875 C 18.753906 -3.421875 18.960938 -3.375 19.109375 -3.28125 C 19.253906 -3.195312 19.359375 -3.03125 19.421875 -2.78125 C 19.492188 -2.539062 19.53125 -2.1875 19.53125 -1.71875 C 19.53125 -1.25 19.492188 -0.890625 19.421875 -0.640625 C 19.359375 -0.398438 19.253906 -0.234375 19.109375 -0.140625 C 18.960938 -0.046875 18.753906 0 18.484375 0 L 14.75 0 C 14.375 0 14.101562 -0.078125 13.9375 -0.234375 C 13.78125 -0.398438 13.703125 -0.671875 13.703125 -1.046875 L 13.703125 -3.46875 C 12.234375 -0.914062 10.398438 0.359375 8.203125 0.359375 C 7.191406 0.359375 6.304688 0.140625 5.546875 -0.296875 C 4.785156 -0.742188 4.195312 -1.375 3.78125 -2.1875 C 3.375 -3.007812 3.171875 -3.96875 3.171875 -5.0625 L 3.171875 -11.984375 L 1.890625 -11.984375 C 1.617188 -11.984375 1.410156 -12.03125 1.265625 -12.125 C 1.117188 -12.21875 1.007812 -12.382812 0.9375 -12.625 C 0.863281 -12.875 0.828125 -13.234375 0.828125 -13.703125 C 0.828125 -14.171875 0.863281 -14.523438 0.9375 -14.765625 C 1.007812 -15.015625 1.117188 -15.179688 1.265625 -15.265625 C 1.410156 -15.359375 1.617188 -15.40625 1.890625 -15.40625 L 6.28125 -15.40625 C 6.65625 -15.40625 6.921875 -15.320312 7.078125 -15.15625 C 7.242188 -15 7.328125 -14.734375 7.328125 -14.359375 L 7.328125 -6.046875 C 7.328125 -5.179688 7.476562 -4.523438 7.78125 -4.078125 C 8.082031 -3.640625 8.582031 -3.421875 9.28125 -3.421875 C 9.925781 -3.421875 10.535156 -3.6875 11.109375 -4.21875 C 11.691406 -4.757812 12.15625 -5.476562 12.5 -6.375 C 12.851562 -7.28125 13.03125 -8.242188 13.03125 -9.265625 L 13.03125 -11.984375 L 11.25 -11.984375 C 10.988281 -11.984375 10.785156 -12.03125 10.640625 -12.125 C 10.492188 -12.21875 10.382812 -12.382812 10.3125 -12.625 C 10.238281 -12.875 10.203125 -13.234375 10.203125 -13.703125 C 10.203125 -14.171875 10.238281 -14.523438 10.3125 -14.765625 C 10.382812 -15.015625 10.492188 -15.179688 10.640625 -15.265625 C 10.785156 -15.359375 10.988281 -15.40625 11.25 -15.40625 Z M 16.15625 -15.40625"/></g><g id="q"><path d="M 16.296875 -21.875 C 16.679688 -21.875 16.953125 -21.789062 17.109375 -21.625 C 17.273438 -21.46875 17.359375 -21.203125 17.359375 -20.828125 L 17.359375 -3.421875 L 18.796875 -3.421875 C 19.066406 -3.421875 19.273438 -3.375 19.421875 -3.28125 C 19.566406 -3.195312 19.675781 -3.03125 19.75 -2.78125 C 19.820312 -2.539062 19.859375 -2.1875 19.859375 -1.71875 C 19.859375 -1.25 19.820312 -0.890625 19.75 -0.640625 C 19.675781 -0.398438 19.566406 -0.234375 19.421875 -0.140625 C 19.273438 -0.046875 19.066406 0 18.796875 0 L 14.90625 0 C 14.53125 0 14.257812 -0.078125 14.09375 -0.234375 C 13.9375 -0.398438 13.859375 -0.671875 13.859375 -1.046875 L 13.859375 -2.453125 C 13.273438 -1.554688 12.550781 -0.863281 11.6875 -0.375 C 10.820312 0.113281 9.859375 0.359375 8.796875 0.359375 C 7.347656 0.359375 6.078125 0.00390625 4.984375 -0.703125 C 3.890625 -1.410156 3.050781 -2.375 2.46875 -3.59375 C 1.894531 -4.820312 1.609375 -6.191406 1.609375 -7.703125 C 1.609375 -9.210938 1.894531 -10.578125 2.46875 -11.796875 C 3.050781 -13.023438 3.890625 -13.992188 4.984375 -14.703125 C 6.078125 -15.410156 7.347656 -15.765625 8.796875 -15.765625 C 9.671875 -15.765625 10.476562 -15.59375 11.21875 -15.25 C 11.96875 -14.914062 12.625 -14.429688 13.1875 -13.796875 L 13.1875 -18.453125 L 10.734375 -18.453125 C 10.460938 -18.453125 10.253906 -18.492188 10.109375 -18.578125 C 9.972656 -18.671875 9.867188 -18.835938 9.796875 -19.078125 C 9.722656 -19.328125 9.6875 -19.6875 9.6875 -20.15625 C 9.6875 -20.625 9.722656 -20.976562 9.796875 -21.21875 C 9.867188 -21.46875 9.972656 -21.640625 10.109375 -21.734375 C 10.253906 -21.828125 10.460938 -21.875 10.734375 -21.875 Z M 9.46875 -11.984375 C 8.78125 -11.984375 8.179688 -11.804688 7.671875 -11.453125 C 7.160156 -11.109375 6.765625 -10.613281 6.484375 -9.96875 C 6.210938 -9.320312 6.078125 -8.566406 6.078125 -7.703125 C 6.078125 -6.835938 6.210938 -6.082031 6.484375 -5.4375 C 6.765625 -4.789062 7.160156 -4.289062 7.671875 -3.9375 C 8.179688 -3.59375 8.78125 -3.421875 9.46875 -3.421875 C 10.175781 -3.421875 10.816406 -3.585938 11.390625 -3.921875 C 11.972656 -4.253906 12.4375 -4.742188 12.78125 -5.390625 C 13.125 -6.046875 13.296875 -6.816406 13.296875 -7.703125 C 13.296875 -8.585938 13.125 -9.351562 12.78125 -10 C 12.4375 -10.65625 11.972656 -11.148438 11.390625 -11.484375 C 10.816406 -11.816406 10.175781 -11.984375 9.46875 -11.984375 Z M 9.46875 -11.984375"/></g><g id="s"><path d="M 16.109375 -15.765625 C 17.128906 -15.765625 17.929688 -15.347656 18.515625 -14.515625 C 19.109375 -13.679688 19.40625 -12.414062 19.40625 -10.71875 L 19.40625 -1.046875 C 19.40625 -0.671875 19.320312 -0.398438 19.15625 -0.234375 C 19 -0.078125 18.734375 0 18.359375 0 L 16.28125 0 C 15.90625 0 15.632812 -0.078125 15.46875 -0.234375 C 15.3125 -0.398438 15.234375 -0.671875 15.234375 -1.046875 L 15.234375 -9.765625 C 15.234375 -10.359375 15.160156 -10.789062 15.015625 -11.0625 C 14.878906 -11.34375 14.664062 -11.484375 14.375 -11.484375 C 13.851562 -11.484375 13.4375 -11.078125 13.125 -10.265625 C 12.820312 -9.453125 12.671875 -8.269531 12.671875 -6.71875 L 12.671875 -1.046875 C 12.671875 -0.671875 12.585938 -0.398438 12.421875 -0.234375 C 12.265625 -0.078125 12 0 11.625 0 L 9.546875 0 C 9.171875 0 8.898438 -0.078125 8.734375 -0.234375 C 8.578125 -0.398438 8.5 -0.671875 8.5 -1.046875 L 8.5 -9.765625 C 8.5 -10.359375 8.425781 -10.789062 8.28125 -11.0625 C 8.144531 -11.34375 7.929688 -11.484375 7.640625 -11.484375 C 7.109375 -11.484375 6.691406 -11.078125 6.390625 -10.265625 C 6.085938 -9.453125 5.9375 -8.269531 5.9375 -6.71875 L 5.9375 -1.046875 C 5.9375 -0.671875 5.851562 -0.398438 5.6875 -0.234375 C 5.53125 -0.078125 5.265625 0 4.890625 0 L 2.8125 0 C 2.4375 0 2.164062 -0.078125 2 -0.234375 C 1.84375 -0.398438 1.765625 -0.671875 1.765625 -1.046875 L 1.765625 -11.984375 L 0.8125 -11.984375 C 0.550781 -11.984375 0.347656 -12.023438 0.203125 -12.109375 C 0.0546875 -12.203125 -0.0507812 -12.367188 -0.125 -12.609375 C -0.195312 -12.859375 -0.234375 -13.21875 -0.234375 -13.6875 C -0.234375 -14.15625 -0.195312 -14.507812 -0.125 -14.75 C -0.0507812 -15 0.0546875 -15.171875 0.203125 -15.265625 C 0.347656 -15.359375 0.550781 -15.40625 0.8125 -15.40625 L 3.71875 -15.40625 C 4.09375 -15.40625 4.359375 -15.320312 4.515625 -15.15625 C 4.679688 -15 4.765625 -14.734375 4.765625 -14.359375 L 4.765625 -11.953125 C 5.285156 -13.210938 5.898438 -14.160156 6.609375 -14.796875 C 7.316406 -15.441406 8.09375 -15.765625 8.9375 -15.765625 C 10.582031 -15.765625 11.644531 -14.640625 12.125 -12.390625 C 12.632812 -13.492188 13.226562 -14.332031 13.90625 -14.90625 C 14.582031 -15.476562 15.316406 -15.765625 16.109375 -15.765625 Z M 16.109375 -15.765625"/></g><g id="t"><path d="M 11.671875 -15.765625 C 13.128906 -15.765625 14.398438 -15.410156 15.484375 -14.703125 C 16.578125 -13.992188 17.410156 -13.023438 17.984375 -11.796875 C 18.566406 -10.578125 18.859375 -9.210938 18.859375 -7.703125 C 18.859375 -6.191406 18.566406 -4.820312 17.984375 -3.59375 C 17.410156 -2.375 16.578125 -1.410156 15.484375 -0.703125 C 14.398438 0.00390625 13.128906 0.359375 11.671875 0.359375 C 10.804688 0.359375 10 0.191406 9.25 -0.140625 C 8.507812 -0.484375 7.851562 -0.96875 7.28125 -1.59375 L 7.28125 3.046875 L 10.0625 3.046875 C 10.332031 3.046875 10.539062 3.085938 10.6875 3.171875 C 10.832031 3.265625 10.941406 3.429688 11.015625 3.671875 C 11.085938 3.921875 11.125 4.28125 11.125 4.75 C 11.125 5.21875 11.085938 5.570312 11.015625 5.8125 C 10.941406 6.0625 10.832031 6.234375 10.6875 6.328125 C 10.539062 6.421875 10.332031 6.46875 10.0625 6.46875 L 1.671875 6.46875 C 1.398438 6.46875 1.191406 6.421875 1.046875 6.328125 C 0.898438 6.242188 0.789062 6.078125 0.71875 5.828125 C 0.644531 5.585938 0.609375 5.234375 0.609375 4.765625 C 0.609375 4.296875 0.644531 3.9375 0.71875 3.6875 C 0.789062 3.445312 0.898438 3.28125 1.046875 3.1875 C 1.191406 3.09375 1.398438 3.046875 1.671875 3.046875 L 3.125 3.046875 L 3.125 -11.984375 L 1.671875 -11.984375 C 1.398438 -11.984375 1.191406 -12.023438 1.046875 -12.109375 C 0.898438 -12.203125 0.789062 -12.367188 0.71875 -12.609375 C 0.644531 -12.859375 0.609375 -13.21875 0.609375 -13.6875 C 0.609375 -14.15625 0.644531 -14.507812 0.71875 -14.75 C 0.789062 -15 0.898438 -15.171875 1.046875 -15.265625 C 1.191406 -15.359375 1.398438 -15.40625 1.671875 -15.40625 L 5.5625 -15.40625 C 5.945312 -15.40625 6.21875 -15.320312 6.375 -15.15625 C 6.539062 -15 6.625 -14.734375 6.625 -14.359375 L 6.625 -12.953125 C 7.195312 -13.835938 7.914062 -14.523438 8.78125 -15.015625 C 9.644531 -15.515625 10.609375 -15.765625 11.671875 -15.765625 Z M 11 -11.984375 C 10.289062 -11.984375 9.644531 -11.816406 9.0625 -11.484375 C 8.488281 -11.148438 8.03125 -10.65625 7.6875 -10 C 7.34375 -9.351562 7.171875 -8.585938 7.171875 -7.703125 C 7.171875 -6.816406 7.34375 -6.046875 7.6875 -5.390625 C 8.03125 -4.742188 8.488281 -4.253906 9.0625 -3.921875 C 9.644531 -3.585938 10.289062 -3.421875 11 -3.421875 C 11.6875 -3.421875 12.285156 -3.59375 12.796875 -3.9375 C 13.304688 -4.289062 13.695312 -4.789062 13.96875 -5.4375 C 14.25 -6.082031 14.390625 -6.835938 14.390625 -7.703125 C 14.390625 -8.566406 14.25 -9.320312 13.96875 -9.96875 C 13.695312 -10.613281 13.304688 -11.109375 12.796875 -11.453125 C 12.285156 -11.804688 11.6875 -11.984375 11 -11.984375 Z M 11 -11.984375"/></g><g id="u"><path d="M 8.078125 -20.15625 C 8.609375 -20.15625 9.015625 -20.117188 9.296875 -20.046875 C 9.578125 -19.972656 9.769531 -19.863281 9.875 -19.71875 C 9.988281 -19.570312 10.046875 -19.367188 10.046875 -19.109375 L 10.046875 -14.40625 L 16.234375 -14.40625 C 16.617188 -14.40625 16.890625 -14.273438 17.046875 -14.015625 C 17.203125 -13.765625 17.28125 -13.296875 17.28125 -12.609375 C 17.28125 -11.910156 17.203125 -11.4375 17.046875 -11.1875 C 16.890625 -10.9375 16.617188 -10.8125 16.234375 -10.8125 L 10.046875 -10.8125 L 10.046875 -6.1875 C 10.046875 -4.34375 10.765625 -3.421875 12.203125 -3.421875 C 12.710938 -3.421875 13.304688 -3.53125 13.984375 -3.75 C 14.671875 -3.976562 15.472656 -4.300781 16.390625 -4.71875 C 16.628906 -4.820312 16.820312 -4.875 16.96875 -4.875 C 17.207031 -4.875 17.425781 -4.773438 17.625 -4.578125 C 17.820312 -4.378906 18.007812 -4.0625 18.1875 -3.625 C 18.382812 -3.125 18.484375 -2.71875 18.484375 -2.40625 C 18.484375 -2.15625 18.425781 -1.945312 18.3125 -1.78125 C 18.195312 -1.625 18.019531 -1.484375 17.78125 -1.359375 C 15.5 -0.210938 13.515625 0.359375 11.828125 0.359375 C 9.898438 0.359375 8.425781 -0.175781 7.40625 -1.25 C 6.394531 -2.332031 5.890625 -3.90625 5.890625 -5.96875 L 5.890625 -10.8125 L 2.671875 -10.8125 C 2.273438 -10.8125 2 -10.9375 1.84375 -11.1875 C 1.6875 -11.4375 1.609375 -11.910156 1.609375 -12.609375 C 1.609375 -13.296875 1.6875 -13.765625 1.84375 -14.015625 C 2 -14.273438 2.273438 -14.40625 2.671875 -14.40625 L 5.890625 -14.40625 L 5.890625 -19.109375 C 5.890625 -19.484375 6.054688 -19.75 6.390625 -19.90625 C 6.734375 -20.070312 7.296875 -20.15625 8.078125 -20.15625 Z M 8.078125 -20.15625"/></g><g id="v"><path d="M 11.5 -15.40625 C 11.875 -15.40625 12.140625 -15.320312 12.296875 -15.15625 C 12.460938 -15 12.546875 -14.734375 12.546875 -14.359375 L 12.546875 -3.421875 L 17.234375 -3.421875 C 17.503906 -3.421875 17.710938 -3.375 17.859375 -3.28125 C 18.003906 -3.1875 18.109375 -3.015625 18.171875 -2.765625 C 18.242188 -2.523438 18.28125 -2.171875 18.28125 -1.703125 C 18.28125 -1.234375 18.242188 -0.875 18.171875 -0.625 C 18.109375 -0.382812 18.003906 -0.21875 17.859375 -0.125 C 17.710938 -0.0390625 17.503906 0 17.234375 0 L 3.828125 0 C 3.566406 0 3.363281 -0.0390625 3.21875 -0.125 C 3.070312 -0.21875 2.960938 -0.382812 2.890625 -0.625 C 2.816406 -0.875 2.78125 -1.234375 2.78125 -1.703125 C 2.78125 -2.171875 2.816406 -2.523438 2.890625 -2.765625 C 2.960938 -3.015625 3.070312 -3.1875 3.21875 -3.28125 C 3.363281 -3.375 3.566406 -3.421875 3.828125 -3.421875 L 8.390625 -3.421875 L 8.390625 -11.984375 L 4.828125 -11.984375 C 4.566406 -11.984375 4.363281 -12.023438 4.21875 -12.109375 C 4.070312 -12.203125 3.960938 -12.367188 3.890625 -12.609375 C 3.816406 -12.859375 3.78125 -13.21875 3.78125 -13.6875 C 3.78125 -14.15625 3.816406 -14.507812 3.890625 -14.75 C 3.960938 -15 4.070312 -15.171875 4.21875 -15.265625 C 4.363281 -15.359375 4.566406 -15.40625 4.828125 -15.40625 Z M 10.421875 -22.71875 C 11.210938 -22.71875 11.765625 -22.632812 12.078125 -22.46875 C 12.390625 -22.3125 12.546875 -22.046875 12.546875 -21.671875 L 12.546875 -18.9375 C 12.546875 -18.5625 12.398438 -18.289062 12.109375 -18.125 C 11.816406 -17.96875 11.28125 -17.890625 10.5 -17.890625 C 9.726562 -17.890625 9.179688 -17.96875 8.859375 -18.125 C 8.546875 -18.289062 8.390625 -18.5625 8.390625 -18.9375 L 8.390625 -21.671875 C 8.390625 -22.054688 8.53125 -22.328125 8.8125 -22.484375 C 9.101562 -22.640625 9.640625 -22.71875 10.421875 -22.71875 Z M 10.421875 -22.71875"/></g><g id="w"><path d="M 12.625 -15.765625 C 13.632812 -15.765625 14.519531 -15.539062 15.28125 -15.09375 C 16.039062 -14.65625 16.625 -14.023438 17.03125 -13.203125 C 17.445312 -12.390625 17.65625 -11.429688 17.65625 -10.328125 L 17.65625 -3.421875 L 18.9375 -3.421875 C 19.207031 -3.421875 19.410156 -3.375 19.546875 -3.28125 C 19.691406 -3.1875 19.800781 -3.015625 19.875 -2.765625 C 19.945312 -2.523438 19.984375 -2.171875 19.984375 -1.703125 C 19.984375 -1.234375 19.945312 -0.875 19.875 -0.625 C 19.800781 -0.382812 19.691406 -0.21875 19.546875 -0.125 C 19.410156 -0.0390625 19.207031 0 18.9375 0 L 12.703125 0 C 12.429688 0 12.222656 -0.0390625 12.078125 -0.125 C 11.941406 -0.21875 11.835938 -0.382812 11.765625 -0.625 C 11.691406 -0.875 11.65625 -1.234375 11.65625 -1.703125 C 11.65625 -2.171875 11.691406 -2.523438 11.765625 -2.765625 C 11.835938 -3.015625 11.941406 -3.1875 12.078125 -3.28125 C 12.222656 -3.375 12.429688 -3.421875 12.703125 -3.421875 L 13.484375 -3.421875 L 13.484375 -9.359375 C 13.484375 -10.222656 13.332031 -10.875 13.03125 -11.3125 C 12.738281 -11.757812 12.238281 -11.984375 11.53125 -11.984375 C 10.882812 -11.984375 10.269531 -11.710938 9.6875 -11.171875 C 9.113281 -10.640625 8.648438 -9.921875 8.296875 -9.015625 C 7.953125 -8.117188 7.78125 -7.160156 7.78125 -6.140625 L 7.78125 -3.421875 L 8.5625 -3.421875 C 8.832031 -3.421875 9.039062 -3.375 9.1875 -3.28125 C 9.332031 -3.1875 9.441406 -3.015625 9.515625 -2.765625 C 9.585938 -2.523438 9.625 -2.171875 9.625 -1.703125 C 9.625 -1.234375 9.585938 -0.875 9.515625 -0.625 C 9.441406 -0.382812 9.332031 -0.21875 9.1875 -0.125 C 9.039062 -0.0390625 8.832031 0 8.5625 0 L 2.328125 0 C 2.066406 0 1.863281 -0.0390625 1.71875 -0.125 C 1.570312 -0.21875 1.460938 -0.382812 1.390625 -0.625 C 1.316406 -0.875 1.28125 -1.234375 1.28125 -1.703125 C 1.28125 -2.171875 1.316406 -2.523438 1.390625 -2.765625 C 1.460938 -3.015625 1.570312 -3.1875 1.71875 -3.28125 C 1.863281 -3.375 2.066406 -3.421875 2.328125 -3.421875 L 3.625 -3.421875 L 3.625 -11.984375 L 2 -11.984375 C 1.726562 -11.984375 1.519531 -12.023438 1.375 -12.109375 C 1.238281 -12.203125 1.132812 -12.367188 1.0625 -12.609375 C 0.988281 -12.859375 0.953125 -13.21875 0.953125 -13.6875 C 0.953125 -14.15625 0.988281 -14.507812 1.0625 -14.75 C 1.132812 -15 1.238281 -15.171875 1.375 -15.265625 C 1.519531 -15.359375 1.726562 -15.40625 2 -15.40625 L 6.0625 -15.40625 C 6.445312 -15.40625 6.71875 -15.320312 6.875 -15.15625 C 7.039062 -15 7.125 -14.734375 7.125 -14.359375 L 7.125 -11.9375 C 8.582031 -14.488281 10.414062 -15.765625 12.625 -15.765625 Z M 12.625 -15.765625"/></g><g id="x"><path d="M 8.796875 -15.765625 C 9.859375 -15.765625 10.820312 -15.539062 11.6875 -15.09375 C 12.550781 -14.65625 13.273438 -14.019531 13.859375 -13.1875 L 13.859375 -14.359375 C 13.859375 -14.734375 13.9375 -15 14.09375 -15.15625 C 14.257812 -15.320312 14.53125 -15.40625 14.90625 -15.40625 L 18.796875 -15.40625 C 19.066406 -15.40625 19.273438 -15.359375 19.421875 -15.265625 C 19.566406 -15.171875 19.675781 -15 19.75 -14.75 C 19.820312 -14.507812 19.859375 -14.15625 19.859375 -13.6875 C 19.859375 -13.21875 19.820312 -12.859375 19.75 -12.609375 C 19.675781 -12.367188 19.566406 -12.203125 19.421875 -12.109375 C 19.273438 -12.023438 19.066406 -11.984375 18.796875 -11.984375 L 17.359375 -11.984375 L 17.359375 -0.015625 C 17.359375 2.160156 16.703125 3.84375 15.390625 5.03125 C 14.085938 6.226562 12.132812 6.828125 9.53125 6.828125 C 8.582031 6.828125 7.539062 6.734375 6.40625 6.546875 C 5.269531 6.367188 4.1875 6.117188 3.15625 5.796875 C 2.613281 5.628906 2.34375 5.25 2.34375 4.65625 C 2.34375 4.382812 2.414062 3.992188 2.5625 3.484375 C 2.726562 2.960938 2.914062 2.582031 3.125 2.34375 C 3.332031 2.113281 3.570312 2 3.84375 2 C 3.988281 2 4.125 2.019531 4.25 2.0625 C 6.375 2.71875 8.082031 3.046875 9.375 3.046875 C 10.71875 3.046875 11.6875 2.765625 12.28125 2.203125 C 12.882812 1.640625 13.1875 0.789062 13.1875 -0.34375 L 13.1875 -2.046875 C 12.625 -1.441406 11.96875 -0.972656 11.21875 -0.640625 C 10.476562 -0.304688 9.671875 -0.140625 8.796875 -0.140625 C 7.367188 -0.140625 6.109375 -0.472656 5.015625 -1.140625 C 3.929688 -1.816406 3.09375 -2.742188 2.5 -3.921875 C 1.90625 -5.109375 1.609375 -6.453125 1.609375 -7.953125 C 1.609375 -9.453125 1.90625 -10.789062 2.5 -11.96875 C 3.09375 -13.15625 3.929688 -14.082031 5.015625 -14.75 C 6.109375 -15.425781 7.367188 -15.765625 8.796875 -15.765625 Z M 9.46875 -11.984375 C 8.4375 -11.984375 7.613281 -11.628906 7 -10.921875 C 6.382812 -10.222656 6.078125 -9.234375 6.078125 -7.953125 C 6.078125 -6.671875 6.382812 -5.675781 7 -4.96875 C 7.613281 -4.269531 8.4375 -3.921875 9.46875 -3.921875 C 10.175781 -3.921875 10.820312 -4.070312 11.40625 -4.375 C 11.988281 -4.675781 12.445312 -5.128906 12.78125 -5.734375 C 13.125 -6.347656 13.296875 -7.085938 13.296875 -7.953125 C 13.296875 -8.816406 13.125 -9.550781 12.78125 -10.15625 C 12.445312 -10.757812 11.988281 -11.210938 11.40625 -11.515625 C 10.820312 -11.828125 10.175781 -11.984375 9.46875 -11.984375 Z M 9.46875 -11.984375"/></g><g id="y"><path d="M 10.359375 -23.234375 C 11.066406 -23.234375 11.566406 -23.148438 11.859375 -22.984375 C 12.160156 -22.828125 12.3125 -22.5625 12.3125 -22.1875 L 12.3125 4.875 C 12.3125 5.238281 12.128906 5.503906 11.765625 5.671875 C 11.398438 5.835938 10.851562 5.921875 10.125 5.921875 C 9.40625 5.921875 8.894531 5.835938 8.59375 5.671875 C 8.300781 5.515625 8.15625 5.25 8.15625 4.875 L 8.15625 -22.1875 C 8.15625 -22.550781 8.335938 -22.816406 8.703125 -22.984375 C 9.066406 -23.148438 9.617188 -23.234375 10.359375 -23.234375 Z M 10.359375 -23.234375"/></g><g id="z"><path d="M 18.75 -15.40625 C 19.019531 -15.40625 19.226562 -15.359375 19.375 -15.265625 C 19.519531 -15.171875 19.625 -15 19.6875 -14.75 C 19.757812 -14.507812 19.796875 -14.15625 19.796875 -13.6875 C 19.796875 -13.21875 19.757812 -12.859375 19.6875 -12.609375 C 19.625 -12.367188 19.519531 -12.203125 19.375 -12.109375 C 19.226562 -12.023438 19.019531 -11.984375 18.75 -11.984375 L 17.6875 -11.984375 L 11.296875 0.953125 C 10.523438 2.515625 9.785156 3.703125 9.078125 4.515625 C 8.367188 5.335938 7.5625 5.914062 6.65625 6.25 C 5.75 6.59375 4.582031 6.785156 3.15625 6.828125 C 2.75 6.835938 2.441406 6.6875 2.234375 6.375 C 2.035156 6.070312 1.9375 5.507812 1.9375 4.6875 C 1.9375 4.113281 2.007812 3.703125 2.15625 3.453125 C 2.3125 3.210938 2.523438 3.082031 2.796875 3.0625 C 3.679688 3.007812 4.394531 2.84375 4.9375 2.5625 C 5.488281 2.289062 5.988281 1.847656 6.4375 1.234375 C 6.894531 0.628906 7.4375 -0.28125 8.0625 -1.5 L 2.96875 -11.984375 L 1.71875 -11.984375 C 1.445312 -11.984375 1.238281 -12.023438 1.09375 -12.109375 C 0.957031 -12.203125 0.851562 -12.367188 0.78125 -12.609375 C 0.707031 -12.859375 0.671875 -13.21875 0.671875 -13.6875 C 0.671875 -14.15625 0.707031 -14.507812 0.78125 -14.75 C 0.851562 -15 0.957031 -15.171875 1.09375 -15.265625 C 1.238281 -15.359375 1.445312 -15.40625 1.71875 -15.40625 L 8.453125 -15.40625 C 8.722656 -15.40625 8.925781 -15.359375 9.0625 -15.265625 C 9.207031 -15.171875 9.316406 -15 9.390625 -14.75 C 9.460938 -14.507812 9.5 -14.15625 9.5 -13.6875 C 9.5 -13.21875 9.460938 -12.859375 9.390625 -12.609375 C 9.316406 -12.367188 9.207031 -12.203125 9.0625 -12.109375 C 8.925781 -12.023438 8.722656 -11.984375 8.453125 -11.984375 L 7.453125 -11.984375 L 10.359375 -5.65625 L 13.25 -11.984375 L 12.359375 -11.984375 C 12.085938 -11.984375 11.878906 -12.023438 11.734375 -12.109375 C 11.585938 -12.203125 11.476562 -12.367188 11.40625 -12.609375 C 11.332031 -12.859375 11.296875 -13.21875 11.296875 -13.6875 C 11.296875 -14.15625 11.332031 -14.507812 11.40625 -14.75 C 11.476562 -15 11.585938 -15.171875 11.734375 -15.265625 C 11.878906 -15.359375 12.085938 -15.40625 12.359375 -15.40625 Z M 18.75 -15.40625"/></g><g id="A"><path d="M 6.234375 -21.875 C 6.609375 -21.875 6.875 -21.789062 7.03125 -21.625 C 7.195312 -21.46875 7.28125 -21.203125 7.28125 -20.828125 L 7.28125 -13.796875 C 7.851562 -14.429688 8.507812 -14.914062 9.25 -15.25 C 10 -15.59375 10.804688 -15.765625 11.671875 -15.765625 C 13.128906 -15.765625 14.398438 -15.410156 15.484375 -14.703125 C 16.578125 -13.992188 17.410156 -13.023438 17.984375 -11.796875 C 18.566406 -10.578125 18.859375 -9.210938 18.859375 -7.703125 C 18.859375 -6.191406 18.566406 -4.820312 17.984375 -3.59375 C 17.410156 -2.375 16.578125 -1.410156 15.484375 -0.703125 C 14.398438 0.00390625 13.128906 0.359375 11.671875 0.359375 C 10.609375 0.359375 9.644531 0.113281 8.78125 -0.375 C 7.914062 -0.863281 7.195312 -1.554688 6.625 -2.453125 L 6.625 -1.046875 C 6.625 -0.671875 6.539062 -0.398438 6.375 -0.234375 C 6.21875 -0.078125 5.945312 0 5.5625 0 L 1.828125 0 C 1.566406 0 1.363281 -0.046875 1.21875 -0.140625 C 1.070312 -0.234375 0.960938 -0.398438 0.890625 -0.640625 C 0.816406 -0.890625 0.78125 -1.25 0.78125 -1.71875 C 0.78125 -2.1875 0.816406 -2.539062 0.890625 -2.78125 C 0.960938 -3.03125 1.070312 -3.195312 1.21875 -3.28125 C 1.363281 -3.375 1.566406 -3.421875 1.828125 -3.421875 L 3.125 -3.421875 L 3.125 -18.453125 L 1.5 -18.453125 C 1.226562 -18.453125 1.019531 -18.492188 0.875 -18.578125 C 0.738281 -18.671875 0.632812 -18.835938 0.5625 -19.078125 C 0.488281 -19.328125 0.453125 -19.6875 0.453125 -20.15625 C 0.453125 -20.625 0.488281 -20.976562 0.5625 -21.21875 C 0.632812 -21.46875 0.738281 -21.640625 0.875 -21.734375 C 1.019531 -21.828125 1.226562 -21.875 1.5 -21.875 Z M 11 -11.984375 C 10.289062 -11.984375 9.644531 -11.816406 9.0625 -11.484375 C 8.488281 -11.148438 8.03125 -10.65625 7.6875 -10 C 7.34375 -9.351562 7.171875 -8.585938 7.171875 -7.703125 C 7.171875 -6.816406 7.34375 -6.046875 7.6875 -5.390625 C 8.03125 -4.742188 8.488281 -4.253906 9.0625 -3.921875 C 9.644531 -3.585938 10.289062 -3.421875 11 -3.421875 C 11.6875 -3.421875 12.285156 -3.59375 12.796875 -3.9375 C 13.304688 -4.289062 13.695312 -4.789062 13.96875 -5.4375 C 14.25 -6.082031 14.390625 -6.835938 14.390625 -7.703125 C 14.390625 -8.566406 14.25 -9.320312 13.96875 -9.96875 C 13.695312 -10.613281 13.304688 -11.109375 12.796875 -11.453125 C 12.285156 -11.804688 11.6875 -11.984375 11 -11.984375 Z M 11 -11.984375"/></g><g id="B"><path d="M 10.46875 -15.765625 C 12.15625 -15.765625 13.59375 -15.398438 14.78125 -14.671875 C 15.96875 -13.953125 16.863281 -12.941406 17.46875 -11.640625 C 18.082031 -10.347656 18.390625 -8.867188 18.390625 -7.203125 C 18.390625 -6.828125 18.304688 -6.5625 18.140625 -6.40625 C 17.984375 -6.25 17.71875 -6.171875 17.34375 -6.171875 L 6.640625 -6.171875 C 6.847656 -5.273438 7.296875 -4.59375 7.984375 -4.125 C 8.679688 -3.65625 9.566406 -3.421875 10.640625 -3.421875 C 12.359375 -3.421875 14.222656 -3.722656 16.234375 -4.328125 C 16.367188 -4.378906 16.503906 -4.40625 16.640625 -4.40625 C 16.878906 -4.40625 17.085938 -4.289062 17.265625 -4.0625 C 17.441406 -3.84375 17.601562 -3.46875 17.75 -2.9375 C 17.863281 -2.519531 17.921875 -2.171875 17.921875 -1.890625 C 17.921875 -1.597656 17.851562 -1.367188 17.71875 -1.203125 C 17.59375 -1.046875 17.390625 -0.914062 17.109375 -0.8125 C 15.992188 -0.445312 14.859375 -0.160156 13.703125 0.046875 C 12.546875 0.253906 11.410156 0.359375 10.296875 0.359375 C 8.609375 0.359375 7.148438 0.015625 5.921875 -0.671875 C 4.703125 -1.359375 3.773438 -2.304688 3.140625 -3.515625 C 2.503906 -4.734375 2.1875 -6.128906 2.1875 -7.703125 C 2.1875 -9.253906 2.519531 -10.640625 3.1875 -11.859375 C 3.851562 -13.085938 4.8125 -14.046875 6.0625 -14.734375 C 7.320312 -15.421875 8.789062 -15.765625 10.46875 -15.765625 Z M 10.46875 -11.984375 C 8.4375 -11.984375 7.179688 -11.128906 6.703125 -9.421875 L 14.03125 -9.421875 C 13.84375 -10.234375 13.441406 -10.863281 12.828125 -11.3125 C 12.210938 -11.757812 11.425781 -11.984375 10.46875 -11.984375 Z M 10.46875 -11.984375"/></g><g id="C"><path d="M 15.453125 -15.765625 C 16.398438 -15.765625 17.289062 -15.457031 18.125 -14.84375 C 18.613281 -14.476562 18.859375 -14.007812 18.859375 -13.4375 C 18.859375 -13.070312 18.753906 -12.640625 18.546875 -12.140625 C 18.347656 -11.640625 18.125 -11.257812 17.875 -11 C 17.625 -10.75 17.363281 -10.625 17.09375 -10.625 C 16.9375 -10.625 16.769531 -10.664062 16.59375 -10.75 C 15.96875 -11.09375 15.320312 -11.265625 14.65625 -11.265625 C 13.800781 -11.265625 13 -10.992188 12.25 -10.453125 C 11.507812 -9.910156 10.910156 -9.160156 10.453125 -8.203125 C 10.003906 -7.242188 9.78125 -6.175781 9.78125 -5 L 9.78125 -3.421875 L 14.5625 -3.421875 C 14.832031 -3.421875 15.039062 -3.375 15.1875 -3.28125 C 15.332031 -3.1875 15.441406 -3.015625 15.515625 -2.765625 C 15.585938 -2.523438 15.625 -2.171875 15.625 -1.703125 C 15.625 -1.234375 15.585938 -0.875 15.515625 -0.625 C 15.441406 -0.382812 15.332031 -0.21875 15.1875 -0.125 C 15.039062 -0.0390625 14.832031 0 14.5625 0 L 3.171875 0 C 2.898438 0 2.691406 -0.0390625 2.546875 -0.125 C 2.398438 -0.21875 2.289062 -0.382812 2.21875 -0.625 C 2.144531 -0.875 2.109375 -1.234375 2.109375 -1.703125 C 2.109375 -2.171875 2.144531 -2.523438 2.21875 -2.765625 C 2.289062 -3.015625 2.398438 -3.1875 2.546875 -3.28125 C 2.691406 -3.375 2.898438 -3.421875 3.171875 -3.421875 L 5.625 -3.421875 L 5.625 -11.984375 L 3.671875 -11.984375 C 3.398438 -11.984375 3.191406 -12.023438 3.046875 -12.109375 C 2.898438 -12.203125 2.789062 -12.367188 2.71875 -12.609375 C 2.65625 -12.859375 2.625 -13.21875 2.625 -13.6875 C 2.625 -14.15625 2.65625 -14.507812 2.71875 -14.75 C 2.789062 -15 2.898438 -15.171875 3.046875 -15.265625 C 3.191406 -15.359375 3.398438 -15.40625 3.671875 -15.40625 L 8.234375 -15.40625 C 8.609375 -15.40625 8.875 -15.320312 9.03125 -15.15625 C 9.195312 -15 9.28125 -14.734375 9.28125 -14.359375 L 9.28125 -10.734375 C 10.113281 -12.347656 11.070312 -13.585938 12.15625 -14.453125 C 13.238281 -15.328125 14.335938 -15.765625 15.453125 -15.765625 Z M 15.453125 -15.765625"/></g><g id="D"><path d="M 15.109375 -15.765625 C 15.816406 -15.765625 16.320312 -15.679688 16.625 -15.515625 C 16.925781 -15.359375 17.078125 -15.09375 17.078125 -14.71875 L 17.078125 -11.203125 C 17.078125 -10.828125 16.957031 -10.554688 16.71875 -10.390625 C 16.476562 -10.234375 16.082031 -10.15625 15.53125 -10.15625 C 14.945312 -10.15625 14.539062 -10.269531 14.3125 -10.5 C 13.664062 -11.195312 12.914062 -11.691406 12.0625 -11.984375 C 11.21875 -12.285156 10.242188 -12.4375 9.140625 -12.4375 C 8.484375 -12.4375 7.96875 -12.316406 7.59375 -12.078125 C 7.21875 -11.847656 7.03125 -11.539062 7.03125 -11.15625 C 7.03125 -10.6875 7.441406 -10.351562 8.265625 -10.15625 C 8.703125 -10.039062 9.441406 -9.929688 10.484375 -9.828125 C 11.515625 -9.710938 12.375 -9.59375 13.0625 -9.46875 C 13.75 -9.34375 14.394531 -9.160156 15 -8.921875 C 15.894531 -8.554688 16.59375 -8.046875 17.09375 -7.390625 C 17.59375 -6.734375 17.84375 -5.863281 17.84375 -4.78125 C 17.84375 -3.726562 17.582031 -2.816406 17.0625 -2.046875 C 16.539062 -1.273438 15.78125 -0.679688 14.78125 -0.265625 C 13.789062 0.148438 12.597656 0.359375 11.203125 0.359375 C 9.660156 0.359375 8.226562 -0.03125 6.90625 -0.8125 L 6.90625 -0.6875 C 6.90625 -0.300781 6.742188 -0.03125 6.421875 0.125 C 6.097656 0.28125 5.582031 0.359375 4.875 0.359375 C 4.15625 0.359375 3.644531 0.28125 3.34375 0.125 C 3.050781 -0.03125 2.90625 -0.300781 2.90625 -0.6875 L 2.90625 -4.40625 C 2.90625 -4.769531 3.035156 -5.035156 3.296875 -5.203125 C 3.554688 -5.367188 3.957031 -5.453125 4.5 -5.453125 C 5.175781 -5.453125 5.640625 -5.296875 5.890625 -4.984375 C 6.441406 -4.285156 7.148438 -3.773438 8.015625 -3.453125 C 8.878906 -3.128906 9.832031 -2.96875 10.875 -2.96875 C 12.644531 -2.96875 13.53125 -3.425781 13.53125 -4.34375 C 13.53125 -4.625 13.40625 -4.847656 13.15625 -5.015625 C 12.90625 -5.179688 12.535156 -5.320312 12.046875 -5.4375 C 11.773438 -5.488281 11.132812 -5.585938 10.125 -5.734375 C 9 -5.867188 8.03125 -6.019531 7.21875 -6.1875 C 6.414062 -6.363281 5.6875 -6.632812 5.03125 -7 C 3.5 -7.84375 2.734375 -9.175781 2.734375 -11 C 2.734375 -11.96875 2.992188 -12.8125 3.515625 -13.53125 C 4.035156 -14.257812 4.753906 -14.8125 5.671875 -15.1875 C 6.585938 -15.570312 7.617188 -15.765625 8.765625 -15.765625 C 10.441406 -15.765625 11.929688 -15.359375 13.234375 -14.546875 L 13.234375 -14.71875 C 13.234375 -15.09375 13.367188 -15.359375 13.640625 -15.515625 C 13.910156 -15.679688 14.398438 -15.765625 15.109375 -15.765625 Z M 15.109375 -15.765625"/></g></defs><path stroke-linecap="round" transform="matrix(9.75747 0 0 9.74134 1028.54 346.912)" fill="none" d="M 0.499909 -0.000197168 L 7.487347 -0.000197168" stroke="#FFF"/><g fill="#FFF"><use x="780.739" y="342.346" xmlns:xlink="http://www.w3.org/1999/xlink" xlink:href="#a" xlink:type="simple" xlink:actuate="onLoad" xlink:show="embed"/></g><g fill="#FFF"><use x="826.266" y="342.346" xmlns:xlink="http://www.w3.org/1999/xlink" xlink:href="#b" xlink:type="simple" xlink:actuate="onLoad" xlink:show="embed"/></g><g fill="#FFF"><use x="871.794" y="342.346" xmlns:xlink="http://www.w3.org/1999/xlink" xlink:href="#c" xlink:type="simple" xlink:actuate="onLoad" xlink:show="embed"/></g><g fill="#FFF"><use x="917.321" y="342.346" xmlns:xlink="http://www.w3.org/1999/xlink" xlink:href="#d" xlink:type="simple" xlink:actuate="onLoad" xlink:show="embed"/></g><g fill="#FFF"><use x="962.849" y="342.346" xmlns:xlink="http://www.w3.org/1999/xlink" xlink:href="#e" xlink:type="simple" xlink:actuate="onLoad" xlink:show="embed"/></g><g fill="#5CE1E6"><use x="687.364" y="316.276" xmlns:xlink="http://www.w3.org/1999/xlink" xlink:href="#f" xlink:type="simple" xlink:actuate="onLoad" xlink:show="embed"/></g><g fill="#5CE1E6"><use x="770.253" y="153.876" xmlns:xlink="http://www.w3.org/1999/xlink" xlink:href="#g" xlink:type="simple" xlink:actuate="onLoad" xlink:show="embed"/></g><g><use x="827.31" y="184.083" xmlns:xlink="http://www.w3.org/1999/xlink" xlink:href="#h" xlink:type="simple" xlink:actuate="onLoad" xlink:show="embed"/></g><g fill="#5CE1E6"><use x="373.528" y="146.22" xmlns:xlink="http://www.w3.org/1999/xlink" xlink:href="#i" xlink:type="simple" xlink:actuate="onLoad" xlink:show="embed"/></g><g fill="#5CE1E6"><use x="419.055" y="146.22" xmlns:xlink="http://www.w3.org/1999/xlink" xlink:href="#i" xlink:type="simple" xlink:actuate="onLoad" xlink:show="embed"/></g><g fill="#5CE1E6"><use x="464.578" y="146.22" xmlns:xlink="http://www.w3.org/1999/xlink" xlink:href="#a" xlink:type="simple" xlink:actuate="onLoad" xlink:show="embed"/></g><g fill="#5CE1E6"><use x="510.105" y="146.22" xmlns:xlink="http://www.w3.org/1999/xlink" xlink:href="#j" xlink:type="simple" xlink:actuate="onLoad" xlink:show="embed"/></g><g fill="#5CE1E6"><use x="555.633" y="146.22" xmlns:xlink="http://www.w3.org/1999/xlink" xlink:href="#k" xlink:type="simple" xlink:actuate="onLoad" xlink:show="embed"/></g><g fill="#5CE1E6"><use x="601.16" y="146.22" xmlns:xlink="http://www.w3.org/1999/xlink" xlink:href="#d" xlink:type="simple" xlink:actuate="onLoad" xlink:show="embed"/></g><g fill="#FFF"><use x="328" y="251.876" xmlns:xlink="http://www.w3.org/1999/xlink" xlink:href="#c" xlink:type="simple" xlink:actuate="onLoad" xlink:show="embed"/></g><g fill="#FFF"><use x="373.528" y="251.876" xmlns:xlink="http://www.w3.org/1999/xlink" xlink:href="#l" xlink:type="simple" xlink:actuate="onLoad" xlink:show="embed"/></g><g fill="#FFF"><use x="419.055" y="251.876" xmlns:xlink="http://www.w3.org/1999/xlink" xlink:href="#j" xlink:type="simple" xlink:actuate="onLoad" xlink:show="embed"/></g><g fill="#FFF"><use x="464.583" y="251.876" xmlns:xlink="http://www.w3.org/1999/xlink" xlink:href="#j" xlink:type="simple" xlink:actuate="onLoad" xlink:show="embed"/></g><g fill="#FFF"><use x="510.11" y="251.876" xmlns:xlink="http://www.w3.org/1999/xlink" xlink:href="#k" xlink:type="simple" xlink:actuate="onLoad" xlink:show="embed"/></g><g fill="#FFF"><use x="555.638" y="251.876" xmlns:xlink="http://www.w3.org/1999/xlink" xlink:href="#d" xlink:type="simple" xlink:actuate="onLoad" xlink:show="embed"/></g><g fill="#FFF"><use x="601.165" y="251.876" xmlns:xlink="http://www.w3.org/1999/xlink" xlink:href="#k" xlink:type="simple" xlink:actuate="onLoad" xlink:show="embed"/></g><g fill="#5CE1E6"><use x="398.098" y="460.409" xmlns:xlink="http://www.w3.org/1999/xlink" xlink:href="#m" xlink:type="simple" xlink:actuate="onLoad" xlink:show="embed"/></g><g fill="#5CE1E6"><use x="418.57" y="460.409" xmlns:xlink="http://www.w3.org/1999/xlink" xlink:href="#n" xlink:type="simple" xlink:actuate="onLoad" xlink:show="embed"/></g><g fill="#5CE1E6"><use x="439.041" y="460.409" xmlns:xlink="http://www.w3.org/1999/xlink" xlink:href="#o" xlink:type="simple" xlink:actuate="onLoad" xlink:show="embed"/></g><g fill="#5CE1E6"><use x="459.513" y="460.409" xmlns:xlink="http://www.w3.org/1999/xlink" xlink:href="#p" xlink:type="simple" xlink:actuate="onLoad" xlink:show="embed"/></g><g fill="#5CE1E6"><use x="479.984" y="460.409" xmlns:xlink="http://www.w3.org/1999/xlink" xlink:href="#q" xlink:type="simple" xlink:actuate="onLoad" xlink:show="embed"/></g><g fill="#5CE1E6"><use x="500.456" y="460.409" xmlns:xlink="http://www.w3.org/1999/xlink" xlink:href="#r" xlink:type="simple" xlink:actuate="onLoad" xlink:show="embed"/></g><g fill="#5CE1E6"><use x="520.927" y="460.409" xmlns:xlink="http://www.w3.org/1999/xlink" xlink:href="#m" xlink:type="simple" xlink:actuate="onLoad" xlink:show="embed"/></g><g fill="#5CE1E6"><use x="541.399" y="460.409" xmlns:xlink="http://www.w3.org/1999/xlink" xlink:href="#o" xlink:type="simple" xlink:actuate="onLoad" xlink:show="embed"/></g><g fill="#5CE1E6"><use x="561.871" y="460.409" xmlns:xlink="http://www.w3.org/1999/xlink" xlink:href="#s" xlink:type="simple" xlink:actuate="onLoad" xlink:show="embed"/></g><g fill="#5CE1E6"><use x="582.342" y="460.409" xmlns:xlink="http://www.w3.org/1999/xlink" xlink:href="#t" xlink:type="simple" xlink:actuate="onLoad" xlink:show="embed"/></g><g fill="#5CE1E6"><use x="602.814" y="460.409" xmlns:xlink="http://www.w3.org/1999/xlink" xlink:href="#p" xlink:type="simple" xlink:actuate="onLoad" xlink:show="embed"/></g><g fill="#5CE1E6"><use x="623.285" y="460.409" xmlns:xlink="http://www.w3.org/1999/xlink" xlink:href="#u" xlink:type="simple" xlink:actuate="onLoad" xlink:show="embed"/></g><g fill="#5CE1E6"><use x="643.757" y="460.409" xmlns:xlink="http://www.w3.org/1999/xlink" xlink:href="#v" xlink:type="simple" xlink:actuate="onLoad" xlink:show="embed"/></g><g fill="#5CE1E6"><use x="664.229" y="460.409" xmlns:xlink="http://www.w3.org/1999/xlink" xlink:href="#w" xlink:type="simple" xlink:actuate="onLoad" xlink:show="embed"/></g><g fill="#5CE1E6"><use x="684.7" y="460.409" xmlns:xlink="http://www.w3.org/1999/xlink" xlink:href="#x" xlink:type="simple" xlink:actuate="onLoad" xlink:show="embed"/></g><g fill="#FFF"><use x="705.161" y="460.409" xmlns:xlink="http://www.w3.org/1999/xlink" xlink:href="#r" xlink:type="simple" xlink:actuate="onLoad" xlink:show="embed"/></g><g fill="#FFF"><use x="725.633" y="460.409" xmlns:xlink="http://www.w3.org/1999/xlink" xlink:href="#y" xlink:type="simple" xlink:actuate="onLoad" xlink:show="embed"/></g><g fill="#FFF"><use x="746.093" y="460.409" xmlns:xlink="http://www.w3.org/1999/xlink" xlink:href="#r" xlink:type="simple" xlink:actuate="onLoad" xlink:show="embed"/></g><g fill="#FFF"><use x="769.639" y="460.409" xmlns:xlink="http://www.w3.org/1999/xlink" xlink:href="#m" xlink:type="simple" xlink:actuate="onLoad" xlink:show="embed"/></g><g fill="#FFF"><use x="790.11" y="460.409" xmlns:xlink="http://www.w3.org/1999/xlink" xlink:href="#z" xlink:type="simple" xlink:actuate="onLoad" xlink:show="embed"/></g><g fill="#FFF"><use x="810.582" y="460.409" xmlns:xlink="http://www.w3.org/1999/xlink" xlink:href="#A" xlink:type="simple" xlink:actuate="onLoad" xlink:show="embed"/></g><g fill="#FFF"><use x="831.054" y="460.409" xmlns:xlink="http://www.w3.org/1999/xlink" xlink:href="#B" xlink:type="simple" xlink:actuate="onLoad" xlink:show="embed"/></g><g fill="#FFF"><use x="851.525" y="460.409" xmlns:xlink="http://www.w3.org/1999/xlink" xlink:href="#C" xlink:type="simple" xlink:actuate="onLoad" xlink:show="embed"/></g><g fill="#FFF"><use x="871.997" y="460.409" xmlns:xlink="http://www.w3.org/1999/xlink" xlink:href="#D" xlink:type="simple" xlink:actuate="onLoad" xlink:show="embed"/></g><g fill="#FFF"><use x="892.468" y="460.409" xmlns:xlink="http://www.w3.org/1999/xlink" xlink:href="#B" xlink:type="simple" xlink:actuate="onLoad" xlink:show="embed"/></g><g fill="#FFF"><use x="912.94" y="460.409" xmlns:xlink="http://www.w3.org/1999/xlink" xlink:href="#m" xlink:type="simple" xlink:actuate="onLoad" xlink:show="embed"/></g><g fill="#FFF"><use x="933.412" y="460.409" xmlns:xlink="http://www.w3.org/1999/xlink" xlink:href="#p" xlink:type="simple" xlink:actuate="onLoad" xlink:show="embed"/></g><g fill="#FFF"><use x="953.883" y="460.409" xmlns:xlink="http://www.w3.org/1999/xlink" xlink:href="#C" xlink:type="simple" xlink:actuate="onLoad" xlink:show="embed"/></g><g fill="#FFF"><use x="974.355" y="460.409" xmlns:xlink="http://www.w3.org/1999/xlink" xlink:href="#v" xlink:type="simple" xlink:actuate="onLoad" xlink:show="embed"/></g><g fill="#FFF"><use x="994.826" y="460.409" xmlns:xlink="http://www.w3.org/1999/xlink" xlink:href="#u" xlink:type="simple" xlink:actuate="onLoad" xlink:show="embed"/></g><g fill="#FFF"><use x="1015.298" y="460.409" xmlns:xlink="http://www.w3.org/1999/xlink" xlink:href="#z" xlink:type="simple" xlink:actuate="onLoad" xlink:show="embed"/></g></svg>