<svg id="visual" viewBox="0 0 1100 600" width="1100" height="600" xmlns="http://www.w3.org/2000/svg" xmlns:xlink="http://www.w3.org/1999/xlink" version="1.1"><rect x="0" y="0" width="1100" height="600" fill="#112036"></rect><path d="M848 600L849 550L759 500L818 450L849 400L904 350L805 300L904 250L878 200L799 150L764 100L841 50L866 0L1100 0L1100 50L1100 100L1100 150L1100 200L1100 250L1100 300L1100 350L1100 400L1100 450L1100 500L1100 550L1100 600Z" fill="#8c32ec"></path><path d="M955 600L854 550L844 500L937 450L856 400L856 350L951 300L945 250L966 200L863 150L965 100L882 50L918 0L1100 0L1100 50L1100 100L1100 150L1100 200L1100 250L1100 300L1100 350L1100 400L1100 450L1100 500L1100 550L1100 600Z" fill="#4489ff"></path><path d="M986 600L1020 550L1007 500L1029 450L976 400L984 350L970 300L1031 250L946 200L984 150L1026 100L1025 50L1011 0L1100 0L1100 50L1100 100L1100 150L1100 200L1100 250L1100 300L1100 350L1100 400L1100 450L1100 500L1100 550L1100 600Z" fill="#7ab9ed"></path></svg>